solid OpenSCAD_Model
  facet normal 0 0 -1
    outer loop
      vertex -51.809 24.176 0
      vertex -34.43 24.176 0
      vertex -51.38 23.187 0
    endloop
  endfacet
  facet normal 0 0 -1
    outer loop
      vertex -73.872 22.677 0
      vertex -72.852 22.199 0
      vertex -72.61 21.21 0
    endloop
  endfacet
  facet normal 0 0 -1
    outer loop
      vertex -50.13 20.221 0
      vertex -35.317 20.221 0
      vertex -49.578 19.232 0
    endloop
  endfacet
  facet normal -0 0 -1
    outer loop
      vertex -72.721 28.131 0
      vertex -72.935 27.142 0
      vertex -73.635 28.277 0
    endloop
  endfacet
  facet normal 0 -0 -1
    outer loop
      vertex -34.361 29.283 0
      vertex -33.786 27.702 0
      vertex -34.866 28.131 0
    endloop
  endfacet
  facet normal -0 0 -1
    outer loop
      vertex -32.675 24.283 0
      vertex -34.43 24.176 0
      vertex -34.392 25.165 0
    endloop
  endfacet
  facet normal 0 0 -1
    outer loop
      vertex -34.43 24.176 0
      vertex -32.675 24.283 0
      vertex -32.75 23.935 0
    endloop
  endfacet
  facet normal 0 0 -1
    outer loop
      vertex -32.627 25.66 0
      vertex -32.675 24.283 0
      vertex -34.392 25.165 0
    endloop
  endfacet
  facet normal 0 -0 -1
    outer loop
      vertex -33.13 27.214 0
      vertex -32.684 26.862 0
      vertex -34.496 26.153 0
    endloop
  endfacet
  facet normal 0 -0 -1
    outer loop
      vertex -33.786 27.702 0
      vertex -33.13 27.214 0
      vertex -34.647 27.142 0
    endloop
  endfacet
  facet normal 0 0 -1
    outer loop
      vertex -34.866 28.131 0
      vertex -33.786 27.702 0
      vertex -34.647 27.142 0
    endloop
  endfacet
  facet normal 0 0 -1
    outer loop
      vertex -35.511 30.852 0
      vertex -37.432 31.097 0
      vertex -37.189 31.995 0
    endloop
  endfacet
  facet normal 0 -0 -1
    outer loop
      vertex -35.511 30.852 0
      vertex -35.309 29.12 0
      vertex -36.046 30.108 0
    endloop
  endfacet
  facet normal 0 0 -1
    outer loop
      vertex -39.486 32.786 0
      vertex -37.189 31.995 0
      vertex -37.432 31.097 0
    endloop
  endfacet
  facet normal 0 -0 -1
    outer loop
      vertex -72.424 30.493 0
      vertex -72.289 29.12 0
      vertex -73.635 28.277 0
    endloop
  endfacet
  facet normal -0 0 -1
    outer loop
      vertex -32.75 23.935 0
      vertex -33.227 23.356 0
      vertex -34.43 24.176 0
    endloop
  endfacet
  facet normal 0 0 -1
    outer loop
      vertex -52.971 24.416 0
      vertex -51.38 23.187 0
      vertex -51.43 20.92 0
    endloop
  endfacet
  facet normal 0 0 -1
    outer loop
      vertex -72.289 29.12 0
      vertex -72.721 28.131 0
      vertex -73.635 28.277 0
    endloop
  endfacet
  facet normal 0 0 -1
    outer loop
      vertex -72.424 30.493 0
      vertex -70.406 31.994 0
      vertex -71.558 30.108 0
    endloop
  endfacet
  facet normal -0 0 -1
    outer loop
      vertex -73.067 23.124 0
      vertex -73.872 22.677 0
      vertex -73.074 23.187 0
    endloop
  endfacet
  facet normal 0 0 -1
    outer loop
      vertex -72.424 30.493 0
      vertex -71.558 30.108 0
      vertex -72.289 29.12 0
    endloop
  endfacet
  facet normal 0 0 -1
    outer loop
      vertex -74.904 24.028 0
      vertex -73.167 24.176 0
      vertex -74.386 23.335 0
    endloop
  endfacet
  facet normal 0 0 -1
    outer loop
      vertex -74.993 25.567 0
      vertex -74.935 26.932 0
      vertex -73.098 26.153 0
    endloop
  endfacet
  facet normal 0 0 -1
    outer loop
      vertex -73.098 26.153 0
      vertex -74.935 26.932 0
      vertex -74.463 27.24 0
    endloop
  endfacet
  facet normal 0 0 -1
    outer loop
      vertex -74.904 24.028 0
      vertex -73.181 25.165 0
      vertex -73.167 24.176 0
    endloop
  endfacet
  facet normal 0 0 -1
    outer loop
      vertex -70.406 31.994 0
      vertex -68.107 32.785 0
      vertex -70.157 31.097 0
    endloop
  endfacet
  facet normal -0 0 -1
    outer loop
      vertex -61.806 15.018 0
      vertex -63.423 14.586 0
      vertex -61.216 16.266 0
    endloop
  endfacet
  facet normal 0 0 -1
    outer loop
      vertex -47.864 17.255 0
      vertex -48.849 18.244 0
      vertex -36.439 18.244 0
    endloop
  endfacet
  facet normal 0 0 -1
    outer loop
      vertex -58.742 18.244 0
      vertex -58.553 18.473 0
      vertex -57.84 17.905 0
    endloop
  endfacet
  facet normal 0 0 -1
    outer loop
      vertex -60.325 15.721 0
      vertex -59.732 17.255 0
      vertex -58.997 16.687 0
    endloop
  endfacet
  facet normal 0 0 -1
    outer loop
      vertex -70.157 31.097 0
      vertex -68.107 32.785 0
      vertex -65.041 33.175 0
    endloop
  endfacet
  facet normal 0 0 -1
    outer loop
      vertex -58.997 16.687 0
      vertex -58.742 18.244 0
      vertex -57.84 17.905 0
    endloop
  endfacet
  facet normal 0 0 -1
    outer loop
      vertex -56.183 20.867 0
      vertex -57.029 21.208 0
      vertex -57.028 21.21 0
    endloop
  endfacet
  facet normal -0 0 -1
    outer loop
      vertex -39.301 15.022 0
      vertex -42.112 14.463 0
      vertex -38.758 16.266 0
    endloop
  endfacet
  facet normal 0 0 -1
    outer loop
      vertex -57.459 20.221 0
      vertex -57.029 21.208 0
      vertex -56.183 20.867 0
    endloop
  endfacet
  facet normal 0 0 -1
    outer loop
      vertex -48.687 16.771 0
      vertex -48.849 18.244 0
      vertex -47.864 17.255 0
    endloop
  endfacet
  facet normal -0 -0 -1
    outer loop
      vertex -42.546 33.175 0
      vertex -37.432 31.097 0
      vertex -53.793 33.225 0
    endloop
  endfacet
  facet normal 0 -0 -1
    outer loop
      vertex -65.041 33.175 0
      vertex -53.793 33.225 0
      vertex -70.157 31.097 0
    endloop
  endfacet
  facet normal 0 -0 -1
    outer loop
      vertex -53.793 33.225 0
      vertex -37.432 31.097 0
      vertex -70.157 31.097 0
    endloop
  endfacet
  facet normal -0 0 -1
    outer loop
      vertex -72.935 27.142 0
      vertex -73.098 26.153 0
      vertex -73.96 27.522 0
    endloop
  endfacet
  facet normal -0 -0 -1
    outer loop
      vertex -39.486 32.786 0
      vertex -37.432 31.097 0
      vertex -42.546 33.175 0
    endloop
  endfacet
  facet normal 0 0 -1
    outer loop
      vertex -34.678 22.533 0
      vertex -34.572 23.089 0
      vertex -33.677 22.918 0
    endloop
  endfacet
  facet normal -0 0 -1
    outer loop
      vertex -35.511 30.852 0
      vertex -36.046 30.108 0
      vertex -37.432 31.097 0
    endloop
  endfacet
  facet normal 0 0 -1
    outer loop
      vertex -35.511 30.852 0
      vertex -34.361 29.283 0
      vertex -35.309 29.12 0
    endloop
  endfacet
  facet normal 0 -0 -1
    outer loop
      vertex -73.635 28.277 0
      vertex -72.935 27.142 0
      vertex -73.96 27.522 0
    endloop
  endfacet
  facet normal 0 0 -1
    outer loop
      vertex -71.558 30.108 0
      vertex -70.406 31.994 0
      vertex -70.157 31.097 0
    endloop
  endfacet
  facet normal -0 0 -1
    outer loop
      vertex -33.227 23.356 0
      vertex -33.677 22.918 0
      vertex -34.43 24.176 0
    endloop
  endfacet
  facet normal 0 -0 -1
    outer loop
      vertex -36.046 30.108 0
      vertex -35.309 29.12 0
      vertex -72.289 29.12 0
    endloop
  endfacet
  facet normal 0 -0 -1
    outer loop
      vertex -71.558 30.108 0
      vertex -36.046 30.108 0
      vertex -72.289 29.12 0
    endloop
  endfacet
  facet normal 0 0 -1
    outer loop
      vertex -35.309 29.12 0
      vertex -34.361 29.283 0
      vertex -35.173 28.87 0
    endloop
  endfacet
  facet normal 0 -0 -1
    outer loop
      vertex -32.684 26.862 0
      vertex -32.627 25.66 0
      vertex -34.496 26.153 0
    endloop
  endfacet
  facet normal 0 -0 -1
    outer loop
      vertex -73.96 27.522 0
      vertex -73.098 26.153 0
      vertex -74.463 27.24 0
    endloop
  endfacet
  facet normal 0 0 -1
    outer loop
      vertex -56.183 20.867 0
      vertex -56.213 23.187 0
      vertex -54.666 24.333 0
    endloop
  endfacet
  facet normal 0 -0 -1
    outer loop
      vertex -34.866 28.131 0
      vertex -34.647 27.142 0
      vertex -72.935 27.142 0
    endloop
  endfacet
  facet normal 0 -0 -1
    outer loop
      vertex -72.721 28.131 0
      vertex -34.866 28.131 0
      vertex -72.935 27.142 0
    endloop
  endfacet
  facet normal 0 0 -1
    outer loop
      vertex -34.647 27.142 0
      vertex -33.13 27.214 0
      vertex -34.496 26.153 0
    endloop
  endfacet
  facet normal 0 0 -1
    outer loop
      vertex -35.173 28.87 0
      vertex -34.361 29.283 0
      vertex -34.866 28.131 0
    endloop
  endfacet
  facet normal 0 0 -1
    outer loop
      vertex -46.392 16.266 0
      vertex -38.758 16.266 0
      vertex -42.112 14.463 0
    endloop
  endfacet
  facet normal 0 0 -1
    outer loop
      vertex -71.378 17.092 0
      vertex -71.803 19.232 0
      vertex -71.151 18.244 0
    endloop
  endfacet
  facet normal 0 0 -1
    outer loop
      vertex -51.43 20.92 0
      vertex -51.38 23.187 0
      vertex -50.97 22.199 0
    endloop
  endfacet
  facet normal 0 0 -1
    outer loop
      vertex -52.971 24.416 0
      vertex -52.246 24.969 0
      vertex -51.809 24.176 0
    endloop
  endfacet
  facet normal 0 0 -1
    outer loop
      vertex -55.779 24.176 0
      vertex -55.421 24.845 0
      vertex -54.666 24.333 0
    endloop
  endfacet
  facet normal 0 0 -1
    outer loop
      vertex -55.421 24.845 0
      vertex -55.138 25.165 0
      vertex -54.666 24.333 0
    endloop
  endfacet
  facet normal 0 0 -1
    outer loop
      vertex -56.213 23.187 0
      vertex -55.779 24.176 0
      vertex -54.666 24.333 0
    endloop
  endfacet
  facet normal 0 0 -1
    outer loop
      vertex -55.138 25.165 0
      vertex -53.842 24.695 0
      vertex -54.666 24.333 0
    endloop
  endfacet
  facet normal -0 0 -1
    outer loop
      vertex -72.61 21.21 0
      vertex -72.965 19.529 0
      vertex -73.872 22.677 0
    endloop
  endfacet
  facet normal 0 0 -1
    outer loop
      vertex -73.098 26.153 0
      vertex -73.181 25.165 0
      vertex -74.993 25.567 0
    endloop
  endfacet
  facet normal -0 0 -1
    outer loop
      vertex -73.181 25.165 0
      vertex -74.904 24.028 0
      vertex -74.993 25.567 0
    endloop
  endfacet
  facet normal 0 -0 -1
    outer loop
      vertex -52.42 25.165 0
      vertex -52.246 24.969 0
      vertex -52.971 24.416 0
    endloop
  endfacet
  facet normal 0 0 -1
    outer loop
      vertex -55.138 25.165 0
      vertex -73.098 26.153 0
      vertex -34.496 26.153 0
    endloop
  endfacet
  facet normal 0 -0 -1
    outer loop
      vertex -73.098 26.153 0
      vertex -55.138 25.165 0
      vertex -73.181 25.165 0
    endloop
  endfacet
  facet normal 0 -0 -1
    outer loop
      vertex -34.746 22.199 0
      vertex -33.782 22.363 0
      vertex -34.984 21.21 0
    endloop
  endfacet
  facet normal 0 0 -1
    outer loop
      vertex -33.677 22.918 0
      vertex -34.572 23.089 0
      vertex -34.547 23.187 0
    endloop
  endfacet
  facet normal 0 0 -1
    outer loop
      vertex -51.43 20.92 0
      vertex -50.13 20.221 0
      vertex -50.269 18.622 0
    endloop
  endfacet
  facet normal 0 0 -1
    outer loop
      vertex -53.842 24.695 0
      vertex -52.42 25.165 0
      vertex -52.971 24.416 0
    endloop
  endfacet
  facet normal 0 0 -1
    outer loop
      vertex -33.782 22.363 0
      vertex -34.296 20.333 0
      vertex -34.984 21.21 0
    endloop
  endfacet
  facet normal 0 0 -1
    outer loop
      vertex -53.842 24.695 0
      vertex -55.138 25.165 0
      vertex -52.42 25.165 0
    endloop
  endfacet
  facet normal 0 0 -1
    outer loop
      vertex -56.183 20.867 0
      vertex -56.625 22.199 0
      vertex -56.213 23.187 0
    endloop
  endfacet
  facet normal 0 0 -1
    outer loop
      vertex -52.42 25.165 0
      vertex -55.138 25.165 0
      vertex -34.496 26.153 0
    endloop
  endfacet
  facet normal -0 0 -1
    outer loop
      vertex -32.627 25.66 0
      vertex -34.392 25.165 0
      vertex -34.496 26.153 0
    endloop
  endfacet
  facet normal 0 0 -1
    outer loop
      vertex -72.852 22.199 0
      vertex -73.872 22.677 0
      vertex -72.973 22.831 0
    endloop
  endfacet
  facet normal 0 -0 -1
    outer loop
      vertex -34.496 26.153 0
      vertex -34.392 25.165 0
      vertex -52.42 25.165 0
    endloop
  endfacet
  facet normal -0 0 -1
    outer loop
      vertex -72.973 22.831 0
      vertex -73.872 22.677 0
      vertex -73.067 23.124 0
    endloop
  endfacet
  facet normal 0 0 -1
    outer loop
      vertex -50.97 22.199 0
      vertex -34.746 22.199 0
      vertex -50.564 21.21 0
    endloop
  endfacet
  facet normal 0 0 -1
    outer loop
      vertex -73.872 22.677 0
      vertex -74.386 23.335 0
      vertex -73.074 23.187 0
    endloop
  endfacet
  facet normal 0 0 -1
    outer loop
      vertex -73.074 23.187 0
      vertex -74.386 23.335 0
      vertex -73.167 24.176 0
    endloop
  endfacet
  facet normal -0 0 -1
    outer loop
      vertex -55.779 24.176 0
      vertex -56.213 23.187 0
      vertex -73.167 24.176 0
    endloop
  endfacet
  facet normal 0 0 -1
    outer loop
      vertex -50.269 18.622 0
      vertex -48.849 18.244 0
      vertex -48.687 16.771 0
    endloop
  endfacet
  facet normal 0 0 -1
    outer loop
      vertex -73.167 24.176 0
      vertex -56.213 23.187 0
      vertex -73.074 23.187 0
    endloop
  endfacet
  facet normal -0 -0 -1
    outer loop
      vertex -51.809 24.176 0
      vertex -51.38 23.187 0
      vertex -52.971 24.416 0
    endloop
  endfacet
  facet normal 0 0 -1
    outer loop
      vertex -33.677 22.918 0
      vertex -34.547 23.187 0
      vertex -34.43 24.176 0
    endloop
  endfacet
  facet normal 0 0 -1
    outer loop
      vertex -33.677 22.918 0
      vertex -33.782 22.363 0
      vertex -34.678 22.533 0
    endloop
  endfacet
  facet normal 0 0 -1
    outer loop
      vertex -34.43 24.176 0
      vertex -34.547 23.187 0
      vertex -51.38 23.187 0
    endloop
  endfacet
  facet normal 0 -0 -1
    outer loop
      vertex -34.678 22.533 0
      vertex -33.782 22.363 0
      vertex -34.746 22.199 0
    endloop
  endfacet
  facet normal 0 0 -1
    outer loop
      vertex -72.274 20.221 0
      vertex -57.459 20.221 0
      vertex -58.004 19.232 0
    endloop
  endfacet
  facet normal 0 -0 -1
    outer loop
      vertex -57.459 20.221 0
      vertex -56.183 20.867 0
      vertex -57.84 17.905 0
    endloop
  endfacet
  facet normal 0 0 -1
    outer loop
      vertex -72.965 19.529 0
      vertex -72.274 20.221 0
      vertex -71.803 19.232 0
    endloop
  endfacet
  facet normal -0 0 -1
    outer loop
      vertex -63.423 14.586 0
      vertex -66.295 14.519 0
      vertex -61.216 16.266 0
    endloop
  endfacet
  facet normal 0 0 -1
    outer loop
      vertex -72.965 19.529 0
      vertex -72.61 21.21 0
      vertex -72.274 20.221 0
    endloop
  endfacet
  facet normal 0 0 -1
    outer loop
      vertex -56.183 20.867 0
      vertex -57.028 21.21 0
      vertex -56.625 22.199 0
    endloop
  endfacet
  facet normal 0 0 -1
    outer loop
      vertex -57.028 21.21 0
      vertex -72.852 22.199 0
      vertex -56.625 22.199 0
    endloop
  endfacet
  facet normal 0 0 -1
    outer loop
      vertex -72.852 22.199 0
      vertex -57.028 21.21 0
      vertex -72.61 21.21 0
    endloop
  endfacet
  facet normal 0 0 -1
    outer loop
      vertex -39.301 15.022 0
      vertex -38.758 16.266 0
      vertex -36.899 16.437 0
    endloop
  endfacet
  facet normal 0 -0 -1
    outer loop
      vertex -35.317 20.221 0
      vertex -34.296 20.333 0
      vertex -35.794 19.232 0
    endloop
  endfacet
  facet normal 0 0 -1
    outer loop
      vertex -44.547 14.66 0
      vertex -46.759 15.44 0
      vertex -46.392 16.266 0
    endloop
  endfacet
  facet normal 0 -0 -1
    outer loop
      vertex -50.97 22.199 0
      vertex -50.564 21.21 0
      vertex -51.43 20.92 0
    endloop
  endfacet
  facet normal 0 -0 -1
    outer loop
      vertex -50.564 21.21 0
      vertex -50.13 20.221 0
      vertex -51.43 20.92 0
    endloop
  endfacet
  facet normal 0 -0 -1
    outer loop
      vertex -35.154 20.64 0
      vertex -34.296 20.333 0
      vertex -35.317 20.221 0
    endloop
  endfacet
  facet normal 0 -0 -1
    outer loop
      vertex -34.984 21.21 0
      vertex -34.296 20.333 0
      vertex -35.154 20.64 0
    endloop
  endfacet
  facet normal 0 0 -1
    outer loop
      vertex -34.746 22.199 0
      vertex -34.984 21.21 0
      vertex -50.564 21.21 0
    endloop
  endfacet
  facet normal 0 0 -1
    outer loop
      vertex -37.487 17.134 0
      vertex -37.348 17.255 0
      vertex -36.899 16.437 0
    endloop
  endfacet
  facet normal 0 0 -1
    outer loop
      vertex -58.553 18.473 0
      vertex -58.004 19.232 0
      vertex -57.84 17.905 0
    endloop
  endfacet
  facet normal 0 0 -1
    outer loop
      vertex -70.254 17.255 0
      vertex -68.82 16.266 0
      vertex -69.143 15.404 0
    endloop
  endfacet
  facet normal -0 0 -1
    outer loop
      vertex -61.216 16.266 0
      vertex -66.295 14.519 0
      vertex -68.82 16.266 0
    endloop
  endfacet
  facet normal 0 0 -1
    outer loop
      vertex -72.965 19.529 0
      vertex -71.803 19.232 0
      vertex -71.378 17.092 0
    endloop
  endfacet
  facet normal 0 0 -1
    outer loop
      vertex -58.004 19.232 0
      vertex -57.459 20.221 0
      vertex -57.84 17.905 0
    endloop
  endfacet
  facet normal 0 0 -1
    outer loop
      vertex -72.274 20.221 0
      vertex -58.004 19.232 0
      vertex -71.803 19.232 0
    endloop
  endfacet
  facet normal 0 -0 -1
    outer loop
      vertex -36.439 18.244 0
      vertex -35.39 18.144 0
      vertex -36.899 16.437 0
    endloop
  endfacet
  facet normal 0 0 -1
    outer loop
      vertex -44.547 14.66 0
      vertex -46.392 16.266 0
      vertex -42.112 14.463 0
    endloop
  endfacet
  facet normal -0 0 -1
    outer loop
      vertex -46.392 16.266 0
      vertex -46.759 15.44 0
      vertex -47.864 17.255 0
    endloop
  endfacet
  facet normal 0 0 -1
    outer loop
      vertex -61.806 15.018 0
      vertex -61.216 16.266 0
      vertex -60.325 15.721 0
    endloop
  endfacet
  facet normal 0 -0 -1
    outer loop
      vertex -49.508 19.125 0
      vertex -48.849 18.244 0
      vertex -50.269 18.622 0
    endloop
  endfacet
  facet normal 0 -0 -1
    outer loop
      vertex -50.13 20.221 0
      vertex -49.578 19.232 0
      vertex -50.269 18.622 0
    endloop
  endfacet
  facet normal 0 -0 -1
    outer loop
      vertex -49.578 19.232 0
      vertex -49.508 19.125 0
      vertex -50.269 18.622 0
    endloop
  endfacet
  facet normal 0 0 -1
    outer loop
      vertex -36.439 18.244 0
      vertex -35.794 19.232 0
      vertex -35.39 18.144 0
    endloop
  endfacet
  facet normal 0 0 -1
    outer loop
      vertex -35.794 19.232 0
      vertex -34.296 20.333 0
      vertex -35.39 18.144 0
    endloop
  endfacet
  facet normal 0 0 -1
    outer loop
      vertex -35.317 20.221 0
      vertex -35.794 19.232 0
      vertex -49.578 19.232 0
    endloop
  endfacet
  facet normal 0 -0 -1
    outer loop
      vertex -68.82 16.266 0
      vertex -66.295 14.519 0
      vertex -69.143 15.404 0
    endloop
  endfacet
  facet normal 0 -0 -1
    outer loop
      vertex -71.151 18.244 0
      vertex -70.254 17.255 0
      vertex -71.378 17.092 0
    endloop
  endfacet
  facet normal 0 -0 -1
    outer loop
      vertex -70.254 17.255 0
      vertex -69.143 15.404 0
      vertex -71.378 17.092 0
    endloop
  endfacet
  facet normal 0 0 -1
    outer loop
      vertex -61.216 16.266 0
      vertex -59.732 17.255 0
      vertex -60.325 15.721 0
    endloop
  endfacet
  facet normal 0 0 -1
    outer loop
      vertex -59.732 17.255 0
      vertex -58.742 18.244 0
      vertex -58.997 16.687 0
    endloop
  endfacet
  facet normal 0 0 -1
    outer loop
      vertex -71.151 18.244 0
      vertex -59.732 17.255 0
      vertex -70.254 17.255 0
    endloop
  endfacet
  facet normal -0 0 -1
    outer loop
      vertex -58.742 18.244 0
      vertex -59.732 17.255 0
      vertex -71.151 18.244 0
    endloop
  endfacet
  facet normal 0 0 -1
    outer loop
      vertex -48.687 16.771 0
      vertex -47.864 17.255 0
      vertex -46.759 15.44 0
    endloop
  endfacet
  facet normal 0 0 -1
    outer loop
      vertex -38.758 16.266 0
      vertex -37.487 17.134 0
      vertex -36.899 16.437 0
    endloop
  endfacet
  facet normal 0 0 -1
    outer loop
      vertex -37.348 17.255 0
      vertex -36.439 18.244 0
      vertex -36.899 16.437 0
    endloop
  endfacet
  facet normal 0 0 -1
    outer loop
      vertex -36.439 18.244 0
      vertex -37.348 17.255 0
      vertex -47.864 17.255 0
    endloop
  endfacet
  facet normal 0 -0 1
    outer loop
      vertex -51.38 23.187 1.5
      vertex -34.43 24.176 1.5
      vertex -51.809 24.176 1.5
    endloop
  endfacet
  facet normal 0 0 1
    outer loop
      vertex -72.61 21.21 1.5
      vertex -72.852 22.199 1.5
      vertex -73.872 22.677 1.5
    endloop
  endfacet
  facet normal 0 -0 1
    outer loop
      vertex -49.578 19.232 1.5
      vertex -35.317 20.221 1.5
      vertex -50.13 20.221 1.5
    endloop
  endfacet
  facet normal 0 0 1
    outer loop
      vertex -73.635 28.277 1.5
      vertex -72.935 27.142 1.5
      vertex -72.721 28.131 1.5
    endloop
  endfacet
  facet normal -0 0 1
    outer loop
      vertex -34.866 28.131 1.5
      vertex -33.786 27.702 1.5
      vertex -34.361 29.283 1.5
    endloop
  endfacet
  facet normal 0 0 1
    outer loop
      vertex -34.392 25.165 1.5
      vertex -34.43 24.176 1.5
      vertex -32.675 24.283 1.5
    endloop
  endfacet
  facet normal 0 -0 1
    outer loop
      vertex -32.75 23.935 1.5
      vertex -32.675 24.283 1.5
      vertex -34.43 24.176 1.5
    endloop
  endfacet
  facet normal -0 0 1
    outer loop
      vertex -34.392 25.165 1.5
      vertex -32.675 24.283 1.5
      vertex -32.627 25.66 1.5
    endloop
  endfacet
  facet normal 0 0 1
    outer loop
      vertex -34.496 26.153 1.5
      vertex -32.684 26.862 1.5
      vertex -33.13 27.214 1.5
    endloop
  endfacet
  facet normal 0 0 1
    outer loop
      vertex -34.647 27.142 1.5
      vertex -33.13 27.214 1.5
      vertex -33.786 27.702 1.5
    endloop
  endfacet
  facet normal 0 -0 1
    outer loop
      vertex -34.647 27.142 1.5
      vertex -33.786 27.702 1.5
      vertex -34.866 28.131 1.5
    endloop
  endfacet
  facet normal 0 0 1
    outer loop
      vertex -37.189 31.995 1.5
      vertex -37.432 31.097 1.5
      vertex -35.511 30.852 1.5
    endloop
  endfacet
  facet normal -0 0 1
    outer loop
      vertex -36.046 30.108 1.5
      vertex -35.309 29.12 1.5
      vertex -35.511 30.852 1.5
    endloop
  endfacet
  facet normal 0 -0 1
    outer loop
      vertex -37.432 31.097 1.5
      vertex -37.189 31.995 1.5
      vertex -39.486 32.786 1.5
    endloop
  endfacet
  facet normal 0 0 1
    outer loop
      vertex -73.635 28.277 1.5
      vertex -72.289 29.12 1.5
      vertex -72.424 30.493 1.5
    endloop
  endfacet
  facet normal 0 0 1
    outer loop
      vertex -34.43 24.176 1.5
      vertex -33.227 23.356 1.5
      vertex -32.75 23.935 1.5
    endloop
  endfacet
  facet normal 0 -0 1
    outer loop
      vertex -51.43 20.92 1.5
      vertex -51.38 23.187 1.5
      vertex -52.971 24.416 1.5
    endloop
  endfacet
  facet normal -0 0 1
    outer loop
      vertex -73.635 28.277 1.5
      vertex -72.721 28.131 1.5
      vertex -72.289 29.12 1.5
    endloop
  endfacet
  facet normal 0 -0 1
    outer loop
      vertex -71.558 30.108 1.5
      vertex -70.406 31.994 1.5
      vertex -72.424 30.493 1.5
    endloop
  endfacet
  facet normal 0 0 1
    outer loop
      vertex -73.074 23.187 1.5
      vertex -73.872 22.677 1.5
      vertex -73.067 23.124 1.5
    endloop
  endfacet
  facet normal 0 -0 1
    outer loop
      vertex -72.289 29.12 1.5
      vertex -71.558 30.108 1.5
      vertex -72.424 30.493 1.5
    endloop
  endfacet
  facet normal 0 -0 1
    outer loop
      vertex -74.386 23.335 1.5
      vertex -73.167 24.176 1.5
      vertex -74.904 24.028 1.5
    endloop
  endfacet
  facet normal 0 0 1
    outer loop
      vertex -73.098 26.153 1.5
      vertex -74.935 26.932 1.5
      vertex -74.993 25.567 1.5
    endloop
  endfacet
  facet normal 0 0 1
    outer loop
      vertex -74.463 27.24 1.5
      vertex -74.935 26.932 1.5
      vertex -73.098 26.153 1.5
    endloop
  endfacet
  facet normal 0 0 1
    outer loop
      vertex -73.167 24.176 1.5
      vertex -73.181 25.165 1.5
      vertex -74.904 24.028 1.5
    endloop
  endfacet
  facet normal 0 -0 1
    outer loop
      vertex -70.157 31.097 1.5
      vertex -68.107 32.785 1.5
      vertex -70.406 31.994 1.5
    endloop
  endfacet
  facet normal 0 0 1
    outer loop
      vertex -61.216 16.266 1.5
      vertex -63.423 14.586 1.5
      vertex -61.806 15.018 1.5
    endloop
  endfacet
  facet normal 0 0 1
    outer loop
      vertex -36.439 18.244 1.5
      vertex -48.849 18.244 1.5
      vertex -47.864 17.255 1.5
    endloop
  endfacet
  facet normal 0 0 1
    outer loop
      vertex -57.84 17.905 1.5
      vertex -58.553 18.473 1.5
      vertex -58.742 18.244 1.5
    endloop
  endfacet
  facet normal 0 0 1
    outer loop
      vertex -58.997 16.687 1.5
      vertex -59.732 17.255 1.5
      vertex -60.325 15.721 1.5
    endloop
  endfacet
  facet normal 0 0 1
    outer loop
      vertex -65.041 33.175 1.5
      vertex -68.107 32.785 1.5
      vertex -70.157 31.097 1.5
    endloop
  endfacet
  facet normal 0 0 1
    outer loop
      vertex -57.84 17.905 1.5
      vertex -58.742 18.244 1.5
      vertex -58.997 16.687 1.5
    endloop
  endfacet
  facet normal 0 0 1
    outer loop
      vertex -57.028 21.21 1.5
      vertex -57.029 21.208 1.5
      vertex -56.183 20.867 1.5
    endloop
  endfacet
  facet normal 0 0 1
    outer loop
      vertex -38.758 16.266 1.5
      vertex -42.112 14.463 1.5
      vertex -39.301 15.022 1.5
    endloop
  endfacet
  facet normal 0 0 1
    outer loop
      vertex -56.183 20.867 1.5
      vertex -57.029 21.208 1.5
      vertex -57.459 20.221 1.5
    endloop
  endfacet
  facet normal 0 0 1
    outer loop
      vertex -47.864 17.255 1.5
      vertex -48.849 18.244 1.5
      vertex -48.687 16.771 1.5
    endloop
  endfacet
  facet normal 0 0 1
    outer loop
      vertex -53.793 33.225 1.5
      vertex -37.432 31.097 1.5
      vertex -42.546 33.175 1.5
    endloop
  endfacet
  facet normal 0 0 1
    outer loop
      vertex -70.157 31.097 1.5
      vertex -53.793 33.225 1.5
      vertex -65.041 33.175 1.5
    endloop
  endfacet
  facet normal 0 0 1
    outer loop
      vertex -70.157 31.097 1.5
      vertex -37.432 31.097 1.5
      vertex -53.793 33.225 1.5
    endloop
  endfacet
  facet normal 0 0 1
    outer loop
      vertex -73.96 27.522 1.5
      vertex -73.098 26.153 1.5
      vertex -72.935 27.142 1.5
    endloop
  endfacet
  facet normal 0 0 1
    outer loop
      vertex -42.546 33.175 1.5
      vertex -37.432 31.097 1.5
      vertex -39.486 32.786 1.5
    endloop
  endfacet
  facet normal 0 0 1
    outer loop
      vertex -33.677 22.918 1.5
      vertex -34.572 23.089 1.5
      vertex -34.678 22.533 1.5
    endloop
  endfacet
  facet normal 0 0 1
    outer loop
      vertex -37.432 31.097 1.5
      vertex -36.046 30.108 1.5
      vertex -35.511 30.852 1.5
    endloop
  endfacet
  facet normal 0 -0 1
    outer loop
      vertex -35.309 29.12 1.5
      vertex -34.361 29.283 1.5
      vertex -35.511 30.852 1.5
    endloop
  endfacet
  facet normal -0 0 1
    outer loop
      vertex -73.96 27.522 1.5
      vertex -72.935 27.142 1.5
      vertex -73.635 28.277 1.5
    endloop
  endfacet
  facet normal 0 0 1
    outer loop
      vertex -70.157 31.097 1.5
      vertex -70.406 31.994 1.5
      vertex -71.558 30.108 1.5
    endloop
  endfacet
  facet normal 0 0 1
    outer loop
      vertex -34.43 24.176 1.5
      vertex -33.677 22.918 1.5
      vertex -33.227 23.356 1.5
    endloop
  endfacet
  facet normal 0 0 1
    outer loop
      vertex -72.289 29.12 1.5
      vertex -35.309 29.12 1.5
      vertex -36.046 30.108 1.5
    endloop
  endfacet
  facet normal 0 0 1
    outer loop
      vertex -72.289 29.12 1.5
      vertex -36.046 30.108 1.5
      vertex -71.558 30.108 1.5
    endloop
  endfacet
  facet normal 0 -0 1
    outer loop
      vertex -35.173 28.87 1.5
      vertex -34.361 29.283 1.5
      vertex -35.309 29.12 1.5
    endloop
  endfacet
  facet normal -0 0 1
    outer loop
      vertex -34.496 26.153 1.5
      vertex -32.627 25.66 1.5
      vertex -32.684 26.862 1.5
    endloop
  endfacet
  facet normal -0 0 1
    outer loop
      vertex -74.463 27.24 1.5
      vertex -73.098 26.153 1.5
      vertex -73.96 27.522 1.5
    endloop
  endfacet
  facet normal 0 0 1
    outer loop
      vertex -54.666 24.333 1.5
      vertex -56.213 23.187 1.5
      vertex -56.183 20.867 1.5
    endloop
  endfacet
  facet normal 0 0 1
    outer loop
      vertex -72.935 27.142 1.5
      vertex -34.647 27.142 1.5
      vertex -34.866 28.131 1.5
    endloop
  endfacet
  facet normal 0 0 1
    outer loop
      vertex -72.935 27.142 1.5
      vertex -34.866 28.131 1.5
      vertex -72.721 28.131 1.5
    endloop
  endfacet
  facet normal 0 -0 1
    outer loop
      vertex -34.496 26.153 1.5
      vertex -33.13 27.214 1.5
      vertex -34.647 27.142 1.5
    endloop
  endfacet
  facet normal 0 -0 1
    outer loop
      vertex -34.866 28.131 1.5
      vertex -34.361 29.283 1.5
      vertex -35.173 28.87 1.5
    endloop
  endfacet
  facet normal 0 -0 1
    outer loop
      vertex -42.112 14.463 1.5
      vertex -38.758 16.266 1.5
      vertex -46.392 16.266 1.5
    endloop
  endfacet
  facet normal 0 0 1
    outer loop
      vertex -71.151 18.244 1.5
      vertex -71.803 19.232 1.5
      vertex -71.378 17.092 1.5
    endloop
  endfacet
  facet normal 0 0 1
    outer loop
      vertex -50.97 22.199 1.5
      vertex -51.38 23.187 1.5
      vertex -51.43 20.92 1.5
    endloop
  endfacet
  facet normal 0 0 1
    outer loop
      vertex -51.809 24.176 1.5
      vertex -52.246 24.969 1.5
      vertex -52.971 24.416 1.5
    endloop
  endfacet
  facet normal 0 0 1
    outer loop
      vertex -54.666 24.333 1.5
      vertex -55.421 24.845 1.5
      vertex -55.779 24.176 1.5
    endloop
  endfacet
  facet normal 0 0 1
    outer loop
      vertex -54.666 24.333 1.5
      vertex -55.138 25.165 1.5
      vertex -55.421 24.845 1.5
    endloop
  endfacet
  facet normal 0 0 1
    outer loop
      vertex -54.666 24.333 1.5
      vertex -55.779 24.176 1.5
      vertex -56.213 23.187 1.5
    endloop
  endfacet
  facet normal 0 -0 1
    outer loop
      vertex -54.666 24.333 1.5
      vertex -53.842 24.695 1.5
      vertex -55.138 25.165 1.5
    endloop
  endfacet
  facet normal 0 0 1
    outer loop
      vertex -73.872 22.677 1.5
      vertex -72.965 19.529 1.5
      vertex -72.61 21.21 1.5
    endloop
  endfacet
  facet normal -0 0 1
    outer loop
      vertex -74.993 25.567 1.5
      vertex -73.181 25.165 1.5
      vertex -73.098 26.153 1.5
    endloop
  endfacet
  facet normal 0 0 1
    outer loop
      vertex -74.993 25.567 1.5
      vertex -74.904 24.028 1.5
      vertex -73.181 25.165 1.5
    endloop
  endfacet
  facet normal 0 0 1
    outer loop
      vertex -52.971 24.416 1.5
      vertex -52.246 24.969 1.5
      vertex -52.42 25.165 1.5
    endloop
  endfacet
  facet normal 0 0 1
    outer loop
      vertex -34.496 26.153 1.5
      vertex -73.098 26.153 1.5
      vertex -55.138 25.165 1.5
    endloop
  endfacet
  facet normal 0 0 1
    outer loop
      vertex -73.181 25.165 1.5
      vertex -55.138 25.165 1.5
      vertex -73.098 26.153 1.5
    endloop
  endfacet
  facet normal 0 0 1
    outer loop
      vertex -34.984 21.21 1.5
      vertex -33.782 22.363 1.5
      vertex -34.746 22.199 1.5
    endloop
  endfacet
  facet normal 0 0 1
    outer loop
      vertex -34.547 23.187 1.5
      vertex -34.572 23.089 1.5
      vertex -33.677 22.918 1.5
    endloop
  endfacet
  facet normal 0 -0 1
    outer loop
      vertex -50.269 18.622 1.5
      vertex -50.13 20.221 1.5
      vertex -51.43 20.92 1.5
    endloop
  endfacet
  facet normal 0 -0 1
    outer loop
      vertex -52.971 24.416 1.5
      vertex -52.42 25.165 1.5
      vertex -53.842 24.695 1.5
    endloop
  endfacet
  facet normal -0 0 1
    outer loop
      vertex -34.984 21.21 1.5
      vertex -34.296 20.333 1.5
      vertex -33.782 22.363 1.5
    endloop
  endfacet
  facet normal 0 0 1
    outer loop
      vertex -52.42 25.165 1.5
      vertex -55.138 25.165 1.5
      vertex -53.842 24.695 1.5
    endloop
  endfacet
  facet normal 0 0 1
    outer loop
      vertex -56.213 23.187 1.5
      vertex -56.625 22.199 1.5
      vertex -56.183 20.867 1.5
    endloop
  endfacet
  facet normal 0 0 1
    outer loop
      vertex -34.496 26.153 1.5
      vertex -55.138 25.165 1.5
      vertex -52.42 25.165 1.5
    endloop
  endfacet
  facet normal 0 0 1
    outer loop
      vertex -34.496 26.153 1.5
      vertex -34.392 25.165 1.5
      vertex -32.627 25.66 1.5
    endloop
  endfacet
  facet normal 0 0 1
    outer loop
      vertex -72.973 22.831 1.5
      vertex -73.872 22.677 1.5
      vertex -72.852 22.199 1.5
    endloop
  endfacet
  facet normal 0 0 1
    outer loop
      vertex -52.42 25.165 1.5
      vertex -34.392 25.165 1.5
      vertex -34.496 26.153 1.5
    endloop
  endfacet
  facet normal 0 0 1
    outer loop
      vertex -73.067 23.124 1.5
      vertex -73.872 22.677 1.5
      vertex -72.973 22.831 1.5
    endloop
  endfacet
  facet normal 0 -0 1
    outer loop
      vertex -50.564 21.21 1.5
      vertex -34.746 22.199 1.5
      vertex -50.97 22.199 1.5
    endloop
  endfacet
  facet normal 0 0 1
    outer loop
      vertex -73.074 23.187 1.5
      vertex -74.386 23.335 1.5
      vertex -73.872 22.677 1.5
    endloop
  endfacet
  facet normal 0 0 1
    outer loop
      vertex -73.167 24.176 1.5
      vertex -74.386 23.335 1.5
      vertex -73.074 23.187 1.5
    endloop
  endfacet
  facet normal -0 0 1
    outer loop
      vertex -73.167 24.176 1.5
      vertex -56.213 23.187 1.5
      vertex -55.779 24.176 1.5
    endloop
  endfacet
  facet normal 0 0 1
    outer loop
      vertex -48.687 16.771 1.5
      vertex -48.849 18.244 1.5
      vertex -50.269 18.622 1.5
    endloop
  endfacet
  facet normal 0 -0 1
    outer loop
      vertex -73.074 23.187 1.5
      vertex -56.213 23.187 1.5
      vertex -73.167 24.176 1.5
    endloop
  endfacet
  facet normal 0 0 1
    outer loop
      vertex -52.971 24.416 1.5
      vertex -51.38 23.187 1.5
      vertex -51.809 24.176 1.5
    endloop
  endfacet
  facet normal 0 0 1
    outer loop
      vertex -34.43 24.176 1.5
      vertex -34.547 23.187 1.5
      vertex -33.677 22.918 1.5
    endloop
  endfacet
  facet normal -0 0 1
    outer loop
      vertex -34.678 22.533 1.5
      vertex -33.782 22.363 1.5
      vertex -33.677 22.918 1.5
    endloop
  endfacet
  facet normal 0 0 1
    outer loop
      vertex -51.38 23.187 1.5
      vertex -34.547 23.187 1.5
      vertex -34.43 24.176 1.5
    endloop
  endfacet
  facet normal 0 0 1
    outer loop
      vertex -34.746 22.199 1.5
      vertex -33.782 22.363 1.5
      vertex -34.678 22.533 1.5
    endloop
  endfacet
  facet normal 0 -0 1
    outer loop
      vertex -58.004 19.232 1.5
      vertex -57.459 20.221 1.5
      vertex -72.274 20.221 1.5
    endloop
  endfacet
  facet normal 0 0 1
    outer loop
      vertex -57.84 17.905 1.5
      vertex -56.183 20.867 1.5
      vertex -57.459 20.221 1.5
    endloop
  endfacet
  facet normal 0 0 1
    outer loop
      vertex -71.803 19.232 1.5
      vertex -72.274 20.221 1.5
      vertex -72.965 19.529 1.5
    endloop
  endfacet
  facet normal 0 0 1
    outer loop
      vertex -61.216 16.266 1.5
      vertex -66.295 14.519 1.5
      vertex -63.423 14.586 1.5
    endloop
  endfacet
  facet normal 0 0 1
    outer loop
      vertex -72.274 20.221 1.5
      vertex -72.61 21.21 1.5
      vertex -72.965 19.529 1.5
    endloop
  endfacet
  facet normal 0 0 1
    outer loop
      vertex -56.625 22.199 1.5
      vertex -57.028 21.21 1.5
      vertex -56.183 20.867 1.5
    endloop
  endfacet
  facet normal 0 0 1
    outer loop
      vertex -56.625 22.199 1.5
      vertex -72.852 22.199 1.5
      vertex -57.028 21.21 1.5
    endloop
  endfacet
  facet normal 0 -0 1
    outer loop
      vertex -72.61 21.21 1.5
      vertex -57.028 21.21 1.5
      vertex -72.852 22.199 1.5
    endloop
  endfacet
  facet normal 0 0 1
    outer loop
      vertex -36.899 16.437 1.5
      vertex -38.758 16.266 1.5
      vertex -39.301 15.022 1.5
    endloop
  endfacet
  facet normal 0 0 1
    outer loop
      vertex -35.794 19.232 1.5
      vertex -34.296 20.333 1.5
      vertex -35.317 20.221 1.5
    endloop
  endfacet
  facet normal 0 0 1
    outer loop
      vertex -46.392 16.266 1.5
      vertex -46.759 15.44 1.5
      vertex -44.547 14.66 1.5
    endloop
  endfacet
  facet normal 0 0 1
    outer loop
      vertex -51.43 20.92 1.5
      vertex -50.564 21.21 1.5
      vertex -50.97 22.199 1.5
    endloop
  endfacet
  facet normal -0 0 1
    outer loop
      vertex -51.43 20.92 1.5
      vertex -50.13 20.221 1.5
      vertex -50.564 21.21 1.5
    endloop
  endfacet
  facet normal 0 0 1
    outer loop
      vertex -35.317 20.221 1.5
      vertex -34.296 20.333 1.5
      vertex -35.154 20.64 1.5
    endloop
  endfacet
  facet normal -0 0 1
    outer loop
      vertex -35.154 20.64 1.5
      vertex -34.296 20.333 1.5
      vertex -34.984 21.21 1.5
    endloop
  endfacet
  facet normal 0 0 1
    outer loop
      vertex -50.564 21.21 1.5
      vertex -34.984 21.21 1.5
      vertex -34.746 22.199 1.5
    endloop
  endfacet
  facet normal 0 0 1
    outer loop
      vertex -36.899 16.437 1.5
      vertex -37.348 17.255 1.5
      vertex -37.487 17.134 1.5
    endloop
  endfacet
  facet normal 0 0 1
    outer loop
      vertex -57.84 17.905 1.5
      vertex -58.004 19.232 1.5
      vertex -58.553 18.473 1.5
    endloop
  endfacet
  facet normal 0 -0 1
    outer loop
      vertex -69.143 15.404 1.5
      vertex -68.82 16.266 1.5
      vertex -70.254 17.255 1.5
    endloop
  endfacet
  facet normal -0 0 1
    outer loop
      vertex -68.82 16.266 1.5
      vertex -66.295 14.519 1.5
      vertex -61.216 16.266 1.5
    endloop
  endfacet
  facet normal 0 0 1
    outer loop
      vertex -71.378 17.092 1.5
      vertex -71.803 19.232 1.5
      vertex -72.965 19.529 1.5
    endloop
  endfacet
  facet normal 0 -0 1
    outer loop
      vertex -57.84 17.905 1.5
      vertex -57.459 20.221 1.5
      vertex -58.004 19.232 1.5
    endloop
  endfacet
  facet normal 0 -0 1
    outer loop
      vertex -71.803 19.232 1.5
      vertex -58.004 19.232 1.5
      vertex -72.274 20.221 1.5
    endloop
  endfacet
  facet normal 0 0 1
    outer loop
      vertex -36.899 16.437 1.5
      vertex -35.39 18.144 1.5
      vertex -36.439 18.244 1.5
    endloop
  endfacet
  facet normal 0 0 1
    outer loop
      vertex -42.112 14.463 1.5
      vertex -46.392 16.266 1.5
      vertex -44.547 14.66 1.5
    endloop
  endfacet
  facet normal 0 0 1
    outer loop
      vertex -47.864 17.255 1.5
      vertex -46.759 15.44 1.5
      vertex -46.392 16.266 1.5
    endloop
  endfacet
  facet normal 0 0 1
    outer loop
      vertex -60.325 15.721 1.5
      vertex -61.216 16.266 1.5
      vertex -61.806 15.018 1.5
    endloop
  endfacet
  facet normal -0 0 1
    outer loop
      vertex -50.269 18.622 1.5
      vertex -48.849 18.244 1.5
      vertex -49.508 19.125 1.5
    endloop
  endfacet
  facet normal 0 0 1
    outer loop
      vertex -50.269 18.622 1.5
      vertex -49.578 19.232 1.5
      vertex -50.13 20.221 1.5
    endloop
  endfacet
  facet normal 0 0 1
    outer loop
      vertex -50.269 18.622 1.5
      vertex -49.508 19.125 1.5
      vertex -49.578 19.232 1.5
    endloop
  endfacet
  facet normal 0 0 1
    outer loop
      vertex -35.39 18.144 1.5
      vertex -35.794 19.232 1.5
      vertex -36.439 18.244 1.5
    endloop
  endfacet
  facet normal 0 -0 1
    outer loop
      vertex -35.39 18.144 1.5
      vertex -34.296 20.333 1.5
      vertex -35.794 19.232 1.5
    endloop
  endfacet
  facet normal 0 0 1
    outer loop
      vertex -49.578 19.232 1.5
      vertex -35.794 19.232 1.5
      vertex -35.317 20.221 1.5
    endloop
  endfacet
  facet normal -0 0 1
    outer loop
      vertex -69.143 15.404 1.5
      vertex -66.295 14.519 1.5
      vertex -68.82 16.266 1.5
    endloop
  endfacet
  facet normal 0 0 1
    outer loop
      vertex -71.378 17.092 1.5
      vertex -70.254 17.255 1.5
      vertex -71.151 18.244 1.5
    endloop
  endfacet
  facet normal -0 0 1
    outer loop
      vertex -71.378 17.092 1.5
      vertex -69.143 15.404 1.5
      vertex -70.254 17.255 1.5
    endloop
  endfacet
  facet normal 0 -0 1
    outer loop
      vertex -60.325 15.721 1.5
      vertex -59.732 17.255 1.5
      vertex -61.216 16.266 1.5
    endloop
  endfacet
  facet normal 0 -0 1
    outer loop
      vertex -58.997 16.687 1.5
      vertex -58.742 18.244 1.5
      vertex -59.732 17.255 1.5
    endloop
  endfacet
  facet normal 0 -0 1
    outer loop
      vertex -70.254 17.255 1.5
      vertex -59.732 17.255 1.5
      vertex -71.151 18.244 1.5
    endloop
  endfacet
  facet normal -0 0 1
    outer loop
      vertex -71.151 18.244 1.5
      vertex -59.732 17.255 1.5
      vertex -58.742 18.244 1.5
    endloop
  endfacet
  facet normal 0 0 1
    outer loop
      vertex -46.759 15.44 1.5
      vertex -47.864 17.255 1.5
      vertex -48.687 16.771 1.5
    endloop
  endfacet
  facet normal 0 0 1
    outer loop
      vertex -36.899 16.437 1.5
      vertex -37.487 17.134 1.5
      vertex -38.758 16.266 1.5
    endloop
  endfacet
  facet normal 0 -0 1
    outer loop
      vertex -36.899 16.437 1.5
      vertex -36.439 18.244 1.5
      vertex -37.348 17.255 1.5
    endloop
  endfacet
  facet normal 0 0 1
    outer loop
      vertex -47.864 17.255 1.5
      vertex -37.348 17.255 1.5
      vertex -36.439 18.244 1.5
    endloop
  endfacet
  facet normal 0.507569 -0.861611 0
    outer loop
      vertex -36.899 16.437 0
      vertex -39.301 15.022 1.5
      vertex -39.301 15.022 0
    endloop
  endfacet
  facet normal 0.507569 -0.861611 0
    outer loop
      vertex -36.899 16.437 0
      vertex -36.899 16.437 1.5
      vertex -39.301 15.022 1.5
    endloop
  endfacet
  facet normal 0.749223 -0.662318 0
    outer loop
      vertex -35.39 18.144 0
      vertex -36.899 16.437 1.5
      vertex -36.899 16.437 0
    endloop
  endfacet
  facet normal 0.749223 -0.662318 0
    outer loop
      vertex -35.39 18.144 0
      vertex -35.39 18.144 1.5
      vertex -36.899 16.437 1.5
    endloop
  endfacet
  facet normal 0.894509 -0.44705 0
    outer loop
      vertex -34.296 20.333 0
      vertex -35.39 18.144 1.5
      vertex -35.39 18.144 0
    endloop
  endfacet
  facet normal 0.894509 -0.44705 0
    outer loop
      vertex -34.296 20.333 0
      vertex -34.296 20.333 1.5
      vertex -35.39 18.144 1.5
    endloop
  endfacet
  facet normal 0.969408 -0.245456 0
    outer loop
      vertex -33.782 22.363 0
      vertex -34.296 20.333 1.5
      vertex -34.296 20.333 0
    endloop
  endfacet
  facet normal 0.969408 -0.245456 0
    outer loop
      vertex -33.782 22.363 0
      vertex -33.782 22.363 1.5
      vertex -34.296 20.333 1.5
    endloop
  endfacet
  facet normal 0.98257 -0.185892 0
    outer loop
      vertex -33.677 22.918 0
      vertex -33.782 22.363 1.5
      vertex -33.782 22.363 0
    endloop
  endfacet
  facet normal 0.98257 -0.185892 0
    outer loop
      vertex -33.677 22.918 0
      vertex -33.677 22.918 1.5
      vertex -33.782 22.363 1.5
    endloop
  endfacet
  facet normal 0.697488 -0.716597 0
    outer loop
      vertex -33.227 23.356 0
      vertex -33.677 22.918 1.5
      vertex -33.677 22.918 0
    endloop
  endfacet
  facet normal 0.697488 -0.716597 0
    outer loop
      vertex -33.227 23.356 0
      vertex -33.227 23.356 1.5
      vertex -33.677 22.918 1.5
    endloop
  endfacet
  facet normal 0.771815 -0.635847 0
    outer loop
      vertex -32.75 23.935 0
      vertex -33.227 23.356 1.5
      vertex -33.227 23.356 0
    endloop
  endfacet
  facet normal 0.771815 -0.635847 0
    outer loop
      vertex -32.75 23.935 0
      vertex -32.75 23.935 1.5
      vertex -33.227 23.356 1.5
    endloop
  endfacet
  facet normal 0.977555 -0.21068 0
    outer loop
      vertex -32.675 24.283 0
      vertex -32.75 23.935 1.5
      vertex -32.75 23.935 0
    endloop
  endfacet
  facet normal 0.977555 -0.21068 0
    outer loop
      vertex -32.675 24.283 0
      vertex -32.675 24.283 1.5
      vertex -32.75 23.935 1.5
    endloop
  endfacet
  facet normal 0.999393 -0.0348372 0
    outer loop
      vertex -32.627 25.66 0
      vertex -32.675 24.283 1.5
      vertex -32.675 24.283 0
    endloop
  endfacet
  facet normal 0.999393 -0.0348372 0
    outer loop
      vertex -32.627 25.66 0
      vertex -32.627 25.66 1.5
      vertex -32.675 24.283 1.5
    endloop
  endfacet
  facet normal 0.998878 0.0473677 0
    outer loop
      vertex -32.684 26.862 0
      vertex -32.627 25.66 1.5
      vertex -32.627 25.66 0
    endloop
  endfacet
  facet normal 0.998878 0.0473677 -0
    outer loop
      vertex -32.684 26.862 0
      vertex -32.684 26.862 1.5
      vertex -32.627 25.66 1.5
    endloop
  endfacet
  facet normal 0.61953 0.784973 0
    outer loop
      vertex -33.13 27.214 0
      vertex -32.684 26.862 1.5
      vertex -32.684 26.862 0
    endloop
  endfacet
  facet normal 0.61953 0.784973 -0
    outer loop
      vertex -33.13 27.214 0
      vertex -33.13 27.214 1.5
      vertex -32.684 26.862 1.5
    endloop
  endfacet
  facet normal 0.596864 0.802342 0
    outer loop
      vertex -33.786 27.702 0
      vertex -33.13 27.214 1.5
      vertex -33.13 27.214 0
    endloop
  endfacet
  facet normal 0.596864 0.802342 -0
    outer loop
      vertex -33.786 27.702 0
      vertex -33.786 27.702 1.5
      vertex -33.13 27.214 1.5
    endloop
  endfacet
  facet normal 0.939776 0.341791 0
    outer loop
      vertex -34.361 29.283 0
      vertex -33.786 27.702 1.5
      vertex -33.786 27.702 0
    endloop
  endfacet
  facet normal 0.939776 0.341791 -0
    outer loop
      vertex -34.361 29.283 0
      vertex -34.361 29.283 1.5
      vertex -33.786 27.702 1.5
    endloop
  endfacet
  facet normal 0.806552 0.591163 0
    outer loop
      vertex -35.511 30.852 0
      vertex -34.361 29.283 1.5
      vertex -34.361 29.283 0
    endloop
  endfacet
  facet normal 0.806552 0.591163 -0
    outer loop
      vertex -35.511 30.852 0
      vertex -35.511 30.852 1.5
      vertex -34.361 29.283 1.5
    endloop
  endfacet
  facet normal 0.56297 0.826477 0
    outer loop
      vertex -37.189 31.995 0
      vertex -35.511 30.852 1.5
      vertex -35.511 30.852 0
    endloop
  endfacet
  facet normal 0.56297 0.826477 -0
    outer loop
      vertex -37.189 31.995 0
      vertex -37.189 31.995 1.5
      vertex -35.511 30.852 1.5
    endloop
  endfacet
  facet normal 0.325597 0.945509 0
    outer loop
      vertex -39.486 32.786 0
      vertex -37.189 31.995 1.5
      vertex -37.189 31.995 0
    endloop
  endfacet
  facet normal 0.325597 0.945509 -0
    outer loop
      vertex -39.486 32.786 0
      vertex -39.486 32.786 1.5
      vertex -37.189 31.995 1.5
    endloop
  endfacet
  facet normal 0.126109 0.992016 0
    outer loop
      vertex -42.546 33.175 0
      vertex -39.486 32.786 1.5
      vertex -39.486 32.786 0
    endloop
  endfacet
  facet normal 0.126109 0.992016 -0
    outer loop
      vertex -42.546 33.175 0
      vertex -42.546 33.175 1.5
      vertex -39.486 32.786 1.5
    endloop
  endfacet
  facet normal 0.00444559 0.99999 0
    outer loop
      vertex -53.793 33.225 0
      vertex -42.546 33.175 1.5
      vertex -42.546 33.175 0
    endloop
  endfacet
  facet normal 0.00444559 0.99999 -0
    outer loop
      vertex -53.793 33.225 0
      vertex -53.793 33.225 1.5
      vertex -42.546 33.175 1.5
    endloop
  endfacet
  facet normal -0.00444519 0.99999 0
    outer loop
      vertex -65.041 33.175 0
      vertex -53.793 33.225 1.5
      vertex -53.793 33.225 0
    endloop
  endfacet
  facet normal -0.00444519 0.99999 0
    outer loop
      vertex -65.041 33.175 0
      vertex -65.041 33.175 1.5
      vertex -53.793 33.225 1.5
    endloop
  endfacet
  facet normal -0.126185 0.992007 0
    outer loop
      vertex -68.107 32.785 0
      vertex -65.041 33.175 1.5
      vertex -65.041 33.175 0
    endloop
  endfacet
  facet normal -0.126185 0.992007 0
    outer loop
      vertex -68.107 32.785 0
      vertex -68.107 32.785 1.5
      vertex -65.041 33.175 1.5
    endloop
  endfacet
  facet normal -0.325344 0.945596 0
    outer loop
      vertex -70.406 31.994 0
      vertex -68.107 32.785 1.5
      vertex -68.107 32.785 0
    endloop
  endfacet
  facet normal -0.325344 0.945596 0
    outer loop
      vertex -70.406 31.994 0
      vertex -70.406 31.994 1.5
      vertex -68.107 32.785 1.5
    endloop
  endfacet
  facet normal -0.596814 0.802379 0
    outer loop
      vertex -72.424 30.493 0
      vertex -70.406 31.994 1.5
      vertex -70.406 31.994 0
    endloop
  endfacet
  facet normal -0.596814 0.802379 0
    outer loop
      vertex -72.424 30.493 0
      vertex -72.424 30.493 1.5
      vertex -70.406 31.994 1.5
    endloop
  endfacet
  facet normal -0.877517 0.479546 0
    outer loop
      vertex -73.635 28.277 0
      vertex -72.424 30.493 1.5
      vertex -72.424 30.493 0
    endloop
  endfacet
  facet normal -0.877517 0.479546 0
    outer loop
      vertex -73.635 28.277 0
      vertex -73.635 28.277 1.5
      vertex -72.424 30.493 1.5
    endloop
  endfacet
  facet normal -0.918515 0.395387 0
    outer loop
      vertex -73.96 27.522 0
      vertex -73.635 28.277 1.5
      vertex -73.635 28.277 0
    endloop
  endfacet
  facet normal -0.918515 0.395387 0
    outer loop
      vertex -73.96 27.522 0
      vertex -73.96 27.522 1.5
      vertex -73.635 28.277 1.5
    endloop
  endfacet
  facet normal -0.489026 0.872269 0
    outer loop
      vertex -74.463 27.24 0
      vertex -73.96 27.522 1.5
      vertex -73.96 27.522 0
    endloop
  endfacet
  facet normal -0.489026 0.872269 0
    outer loop
      vertex -74.463 27.24 0
      vertex -74.463 27.24 1.5
      vertex -73.96 27.522 1.5
    endloop
  endfacet
  facet normal -0.546484 0.837469 0
    outer loop
      vertex -74.935 26.932 0
      vertex -74.463 27.24 1.5
      vertex -74.463 27.24 0
    endloop
  endfacet
  facet normal -0.546484 0.837469 0
    outer loop
      vertex -74.935 26.932 0
      vertex -74.935 26.932 1.5
      vertex -74.463 27.24 1.5
    endloop
  endfacet
  facet normal -0.999098 0.0424525 0
    outer loop
      vertex -74.993 25.567 0
      vertex -74.935 26.932 1.5
      vertex -74.935 26.932 0
    endloop
  endfacet
  facet normal -0.999098 0.0424525 0
    outer loop
      vertex -74.993 25.567 0
      vertex -74.993 25.567 1.5
      vertex -74.935 26.932 1.5
    endloop
  endfacet
  facet normal -0.998332 -0.0577333 0
    outer loop
      vertex -74.904 24.028 0
      vertex -74.993 25.567 1.5
      vertex -74.993 25.567 0
    endloop
  endfacet
  facet normal -0.998332 -0.0577333 0
    outer loop
      vertex -74.904 24.028 0
      vertex -74.904 24.028 1.5
      vertex -74.993 25.567 1.5
    endloop
  endfacet
  facet normal -0.80097 -0.598705 0
    outer loop
      vertex -74.386 23.335 0
      vertex -74.904 24.028 1.5
      vertex -74.904 24.028 0
    endloop
  endfacet
  facet normal -0.80097 -0.598705 0
    outer loop
      vertex -74.386 23.335 0
      vertex -74.386 23.335 1.5
      vertex -74.904 24.028 1.5
    endloop
  endfacet
  facet normal -0.788061 -0.615598 0
    outer loop
      vertex -73.872 22.677 0
      vertex -74.386 23.335 1.5
      vertex -74.386 23.335 0
    endloop
  endfacet
  facet normal -0.788061 -0.615598 0
    outer loop
      vertex -73.872 22.677 0
      vertex -73.872 22.677 1.5
      vertex -74.386 23.335 1.5
    endloop
  endfacet
  facet normal -0.960911 -0.276857 0
    outer loop
      vertex -72.965 19.529 0
      vertex -73.872 22.677 1.5
      vertex -73.872 22.677 0
    endloop
  endfacet
  facet normal -0.960911 -0.276857 0
    outer loop
      vertex -72.965 19.529 0
      vertex -72.965 19.529 1.5
      vertex -73.872 22.677 1.5
    endloop
  endfacet
  facet normal -0.83798 -0.545701 0
    outer loop
      vertex -71.378 17.092 0
      vertex -72.965 19.529 1.5
      vertex -72.965 19.529 0
    endloop
  endfacet
  facet normal -0.83798 -0.545701 0
    outer loop
      vertex -71.378 17.092 0
      vertex -71.378 17.092 1.5
      vertex -72.965 19.529 1.5
    endloop
  endfacet
  facet normal -0.602682 -0.797982 0
    outer loop
      vertex -69.143 15.404 0
      vertex -71.378 17.092 1.5
      vertex -71.378 17.092 0
    endloop
  endfacet
  facet normal -0.602682 -0.797982 0
    outer loop
      vertex -69.143 15.404 0
      vertex -69.143 15.404 1.5
      vertex -71.378 17.092 1.5
    endloop
  endfacet
  facet normal -0.296747 -0.954956 0
    outer loop
      vertex -66.295 14.519 0
      vertex -69.143 15.404 1.5
      vertex -69.143 15.404 0
    endloop
  endfacet
  facet normal -0.296747 -0.954956 0
    outer loop
      vertex -66.295 14.519 0
      vertex -66.295 14.519 1.5
      vertex -69.143 15.404 1.5
    endloop
  endfacet
  facet normal 0.0233223 -0.999728 0
    outer loop
      vertex -63.423 14.586 0
      vertex -66.295 14.519 1.5
      vertex -66.295 14.519 0
    endloop
  endfacet
  facet normal 0.0233223 -0.999728 0
    outer loop
      vertex -63.423 14.586 0
      vertex -63.423 14.586 1.5
      vertex -66.295 14.519 1.5
    endloop
  endfacet
  facet normal 0.258109 -0.966116 0
    outer loop
      vertex -61.806 15.018 0
      vertex -63.423 14.586 1.5
      vertex -63.423 14.586 0
    endloop
  endfacet
  facet normal 0.258109 -0.966116 0
    outer loop
      vertex -61.806 15.018 0
      vertex -61.806 15.018 1.5
      vertex -63.423 14.586 1.5
    endloop
  endfacet
  facet normal 0.42882 -0.90339 0
    outer loop
      vertex -60.325 15.721 0
      vertex -61.806 15.018 1.5
      vertex -61.806 15.018 0
    endloop
  endfacet
  facet normal 0.42882 -0.90339 0
    outer loop
      vertex -60.325 15.721 0
      vertex -60.325 15.721 1.5
      vertex -61.806 15.018 1.5
    endloop
  endfacet
  facet normal 0.588244 -0.808683 0
    outer loop
      vertex -58.997 16.687 0
      vertex -60.325 15.721 1.5
      vertex -60.325 15.721 0
    endloop
  endfacet
  facet normal 0.588244 -0.808683 0
    outer loop
      vertex -58.997 16.687 0
      vertex -58.997 16.687 1.5
      vertex -60.325 15.721 1.5
    endloop
  endfacet
  facet normal 0.725029 -0.688718 0
    outer loop
      vertex -57.84 17.905 0
      vertex -58.997 16.687 1.5
      vertex -58.997 16.687 0
    endloop
  endfacet
  facet normal 0.725029 -0.688718 0
    outer loop
      vertex -57.84 17.905 0
      vertex -57.84 17.905 1.5
      vertex -58.997 16.687 1.5
    endloop
  endfacet
  facet normal 0.872722 -0.488218 0
    outer loop
      vertex -56.183 20.867 0
      vertex -57.84 17.905 1.5
      vertex -57.84 17.905 0
    endloop
  endfacet
  facet normal 0.872722 -0.488218 0
    outer loop
      vertex -56.183 20.867 0
      vertex -56.183 20.867 1.5
      vertex -57.84 17.905 1.5
    endloop
  endfacet
  facet normal 0.916097 -0.400957 0
    outer loop
      vertex -54.666 24.333 0
      vertex -56.183 20.867 1.5
      vertex -56.183 20.867 0
    endloop
  endfacet
  facet normal 0.916097 -0.400957 0
    outer loop
      vertex -54.666 24.333 0
      vertex -54.666 24.333 1.5
      vertex -56.183 20.867 1.5
    endloop
  endfacet
  facet normal 0.402217 -0.915544 0
    outer loop
      vertex -53.842 24.695 0
      vertex -54.666 24.333 1.5
      vertex -54.666 24.333 0
    endloop
  endfacet
  facet normal 0.402217 -0.915544 0
    outer loop
      vertex -53.842 24.695 0
      vertex -53.842 24.695 1.5
      vertex -54.666 24.333 1.5
    endloop
  endfacet
  facet normal -0.305053 -0.952335 0
    outer loop
      vertex -52.971 24.416 0
      vertex -53.842 24.695 1.5
      vertex -53.842 24.695 0
    endloop
  endfacet
  facet normal -0.305053 -0.952335 0
    outer loop
      vertex -52.971 24.416 0
      vertex -52.971 24.416 1.5
      vertex -53.842 24.695 1.5
    endloop
  endfacet
  facet normal -0.915049 -0.403344 0
    outer loop
      vertex -51.43 20.92 0
      vertex -52.971 24.416 1.5
      vertex -52.971 24.416 0
    endloop
  endfacet
  facet normal -0.915049 -0.403344 0
    outer loop
      vertex -51.43 20.92 0
      vertex -51.43 20.92 1.5
      vertex -52.971 24.416 1.5
    endloop
  endfacet
  facet normal -0.892555 -0.450938 0
    outer loop
      vertex -50.269 18.622 0
      vertex -51.43 20.92 1.5
      vertex -51.43 20.92 0
    endloop
  endfacet
  facet normal -0.892555 -0.450938 0
    outer loop
      vertex -50.269 18.622 0
      vertex -50.269 18.622 1.5
      vertex -51.43 20.92 1.5
    endloop
  endfacet
  facet normal -0.760184 -0.649708 0
    outer loop
      vertex -48.687 16.771 0
      vertex -50.269 18.622 1.5
      vertex -50.269 18.622 0
    endloop
  endfacet
  facet normal -0.760184 -0.649708 0
    outer loop
      vertex -48.687 16.771 0
      vertex -48.687 16.771 1.5
      vertex -50.269 18.622 1.5
    endloop
  endfacet
  facet normal -0.568122 -0.822944 0
    outer loop
      vertex -46.759 15.44 0
      vertex -48.687 16.771 1.5
      vertex -48.687 16.771 0
    endloop
  endfacet
  facet normal -0.568122 -0.822944 0
    outer loop
      vertex -46.759 15.44 0
      vertex -46.759 15.44 1.5
      vertex -48.687 16.771 1.5
    endloop
  endfacet
  facet normal -0.332552 -0.943085 0
    outer loop
      vertex -44.547 14.66 0
      vertex -46.759 15.44 1.5
      vertex -46.759 15.44 0
    endloop
  endfacet
  facet normal -0.332552 -0.943085 0
    outer loop
      vertex -44.547 14.66 0
      vertex -44.547 14.66 1.5
      vertex -46.759 15.44 1.5
    endloop
  endfacet
  facet normal -0.08064 -0.996743 0
    outer loop
      vertex -42.112 14.463 0
      vertex -44.547 14.66 1.5
      vertex -44.547 14.66 0
    endloop
  endfacet
  facet normal -0.08064 -0.996743 0
    outer loop
      vertex -42.112 14.463 0
      vertex -42.112 14.463 1.5
      vertex -44.547 14.66 1.5
    endloop
  endfacet
  facet normal 0.195042 -0.980795 0
    outer loop
      vertex -39.301 15.022 0
      vertex -42.112 14.463 1.5
      vertex -42.112 14.463 0
    endloop
  endfacet
  facet normal 0.195042 -0.980795 0
    outer loop
      vertex -39.301 15.022 0
      vertex -39.301 15.022 1.5
      vertex -42.112 14.463 1.5
    endloop
  endfacet
  facet normal 0.576706 -0.816952 0
    outer loop
      vertex -70.157 31.097 0
      vertex -70.157 31.097 1.5
      vertex -71.558 30.108 0
    endloop
  endfacet
  facet normal 0.576706 -0.816952 0
    outer loop
      vertex -71.558 30.108 1.5
      vertex -71.558 30.108 0
      vertex -70.157 31.097 1.5
    endloop
  endfacet
  facet normal 0 -1 0
    outer loop
      vertex -37.432 31.097 0
      vertex -37.432 31.097 1.5
      vertex -70.157 31.097 0
    endloop
  endfacet
  facet normal 0 -1 0
    outer loop
      vertex -70.157 31.097 1.5
      vertex -70.157 31.097 0
      vertex -37.432 31.097 1.5
    endloop
  endfacet
  facet normal -0.580849 -0.814011 0
    outer loop
      vertex -36.046 30.108 0
      vertex -36.046 30.108 1.5
      vertex -37.432 31.097 0
    endloop
  endfacet
  facet normal -0.580849 -0.814011 -0
    outer loop
      vertex -37.432 31.097 1.5
      vertex -37.432 31.097 0
      vertex -36.046 30.108 1.5
    endloop
  endfacet
  facet normal 0 1 0
    outer loop
      vertex -71.558 30.108 0
      vertex -71.558 30.108 1.5
      vertex -36.046 30.108 0
    endloop
  endfacet
  facet normal 0 1 0
    outer loop
      vertex -36.046 30.108 1.5
      vertex -36.046 30.108 0
      vertex -71.558 30.108 1.5
    endloop
  endfacet
  facet normal 0.916391 -0.400284 0
    outer loop
      vertex -72.289 29.12 0
      vertex -72.289 29.12 1.5
      vertex -72.721 28.131 0
    endloop
  endfacet
  facet normal 0.916391 -0.400284 0
    outer loop
      vertex -72.721 28.131 1.5
      vertex -72.721 28.131 0
      vertex -72.289 29.12 1.5
    endloop
  endfacet
  facet normal 0 -1 0
    outer loop
      vertex -35.309 29.12 0
      vertex -35.309 29.12 1.5
      vertex -72.289 29.12 0
    endloop
  endfacet
  facet normal 0 -1 0
    outer loop
      vertex -72.289 29.12 1.5
      vertex -72.289 29.12 0
      vertex -35.309 29.12 1.5
    endloop
  endfacet
  facet normal -0.878432 -0.477867 0
    outer loop
      vertex -35.173 28.87 0
      vertex -35.173 28.87 1.5
      vertex -35.309 29.12 0
    endloop
  endfacet
  facet normal -0.878432 -0.477867 -0
    outer loop
      vertex -35.309 29.12 1.5
      vertex -35.309 29.12 0
      vertex -35.173 28.87 1.5
    endloop
  endfacet
  facet normal -0.923483 -0.383639 0
    outer loop
      vertex -34.866 28.131 0
      vertex -34.866 28.131 1.5
      vertex -35.173 28.87 0
    endloop
  endfacet
  facet normal -0.923483 -0.383639 -0
    outer loop
      vertex -35.173 28.87 1.5
      vertex -35.173 28.87 0
      vertex -34.866 28.131 1.5
    endloop
  endfacet
  facet normal 0 1 0
    outer loop
      vertex -72.721 28.131 0
      vertex -72.721 28.131 1.5
      vertex -34.866 28.131 0
    endloop
  endfacet
  facet normal 0 1 0
    outer loop
      vertex -34.866 28.131 1.5
      vertex -34.866 28.131 0
      vertex -72.721 28.131 1.5
    endloop
  endfacet
  facet normal 0.986689 -0.162619 0
    outer loop
      vertex -72.935 27.142 0
      vertex -72.935 27.142 1.5
      vertex -73.098 26.153 0
    endloop
  endfacet
  facet normal 0.986689 -0.162619 0
    outer loop
      vertex -73.098 26.153 1.5
      vertex -73.098 26.153 0
      vertex -72.935 27.142 1.5
    endloop
  endfacet
  facet normal 0 -1 0
    outer loop
      vertex -34.647 27.142 0
      vertex -34.647 27.142 1.5
      vertex -72.935 27.142 0
    endloop
  endfacet
  facet normal 0 -1 0
    outer loop
      vertex -72.935 27.142 1.5
      vertex -72.935 27.142 0
      vertex -34.647 27.142 1.5
    endloop
  endfacet
  facet normal -0.988544 -0.15093 0
    outer loop
      vertex -34.496 26.153 0
      vertex -34.496 26.153 1.5
      vertex -34.647 27.142 0
    endloop
  endfacet
  facet normal -0.988544 -0.15093 -0
    outer loop
      vertex -34.647 27.142 1.5
      vertex -34.647 27.142 0
      vertex -34.496 26.153 1.5
    endloop
  endfacet
  facet normal 0 1 0
    outer loop
      vertex -73.098 26.153 0
      vertex -73.098 26.153 1.5
      vertex -34.496 26.153 0
    endloop
  endfacet
  facet normal 0 1 0
    outer loop
      vertex -34.496 26.153 1.5
      vertex -34.496 26.153 0
      vertex -73.098 26.153 1.5
    endloop
  endfacet
  facet normal 0.9999 0.0141543 -0
    outer loop
      vertex -73.181 25.165 0
      vertex -73.181 25.165 1.5
      vertex -73.167 24.176 0
    endloop
  endfacet
  facet normal 0.9999 0.0141543 0
    outer loop
      vertex -73.167 24.176 1.5
      vertex -73.167 24.176 0
      vertex -73.181 25.165 1.5
    endloop
  endfacet
  facet normal 0 -1 0
    outer loop
      vertex -55.138 25.165 0
      vertex -55.138 25.165 1.5
      vertex -73.181 25.165 0
    endloop
  endfacet
  facet normal 0 -1 0
    outer loop
      vertex -73.181 25.165 1.5
      vertex -73.181 25.165 0
      vertex -55.138 25.165 1.5
    endloop
  endfacet
  facet normal -0.749086 0.662473 0
    outer loop
      vertex -55.421 24.845 0
      vertex -55.421 24.845 1.5
      vertex -55.138 25.165 0
    endloop
  endfacet
  facet normal -0.749086 0.662473 0
    outer loop
      vertex -55.138 25.165 1.5
      vertex -55.138 25.165 0
      vertex -55.421 24.845 1.5
    endloop
  endfacet
  facet normal -0.881695 0.471819 0
    outer loop
      vertex -55.779 24.176 0
      vertex -55.779 24.176 1.5
      vertex -55.421 24.845 0
    endloop
  endfacet
  facet normal -0.881695 0.471819 0
    outer loop
      vertex -55.421 24.845 1.5
      vertex -55.421 24.845 0
      vertex -55.779 24.176 1.5
    endloop
  endfacet
  facet normal 0 1 0
    outer loop
      vertex -73.167 24.176 0
      vertex -73.167 24.176 1.5
      vertex -55.779 24.176 0
    endloop
  endfacet
  facet normal 0 1 0
    outer loop
      vertex -55.779 24.176 1.5
      vertex -55.779 24.176 0
      vertex -73.167 24.176 1.5
    endloop
  endfacet
  facet normal 0.875819 0.482639 -0
    outer loop
      vertex -52.246 24.969 0
      vertex -52.246 24.969 1.5
      vertex -51.809 24.176 0
    endloop
  endfacet
  facet normal 0.875819 0.482639 0
    outer loop
      vertex -51.809 24.176 1.5
      vertex -51.809 24.176 0
      vertex -52.246 24.969 1.5
    endloop
  endfacet
  facet normal 0.74783 0.66389 -0
    outer loop
      vertex -52.42 25.165 0
      vertex -52.42 25.165 1.5
      vertex -52.246 24.969 0
    endloop
  endfacet
  facet normal 0.74783 0.66389 0
    outer loop
      vertex -52.246 24.969 1.5
      vertex -52.246 24.969 0
      vertex -52.42 25.165 1.5
    endloop
  endfacet
  facet normal 0 -1 0
    outer loop
      vertex -34.392 25.165 0
      vertex -34.392 25.165 1.5
      vertex -52.42 25.165 0
    endloop
  endfacet
  facet normal 0 -1 0
    outer loop
      vertex -52.42 25.165 1.5
      vertex -52.42 25.165 0
      vertex -34.392 25.165 1.5
    endloop
  endfacet
  facet normal -0.999263 0.0383943 0
    outer loop
      vertex -34.43 24.176 0
      vertex -34.43 24.176 1.5
      vertex -34.392 25.165 0
    endloop
  endfacet
  facet normal -0.999263 0.0383943 0
    outer loop
      vertex -34.392 25.165 1.5
      vertex -34.392 25.165 0
      vertex -34.43 24.176 1.5
    endloop
  endfacet
  facet normal 0 1 0
    outer loop
      vertex -51.809 24.176 0
      vertex -51.809 24.176 1.5
      vertex -34.43 24.176 0
    endloop
  endfacet
  facet normal 0 1 0
    outer loop
      vertex -34.43 24.176 1.5
      vertex -34.43 24.176 0
      vertex -51.809 24.176 1.5
    endloop
  endfacet
  facet normal 0.982161 0.18804 -0
    outer loop
      vertex -72.973 22.831 0
      vertex -72.973 22.831 1.5
      vertex -72.852 22.199 0
    endloop
  endfacet
  facet normal 0.982161 0.18804 0
    outer loop
      vertex -72.852 22.199 1.5
      vertex -72.852 22.199 0
      vertex -72.973 22.831 1.5
    endloop
  endfacet
  facet normal 0.952197 0.305483 -0
    outer loop
      vertex -73.067 23.124 0
      vertex -73.067 23.124 1.5
      vertex -72.973 22.831 0
    endloop
  endfacet
  facet normal 0.952197 0.305483 0
    outer loop
      vertex -72.973 22.831 1.5
      vertex -72.973 22.831 0
      vertex -73.067 23.124 1.5
    endloop
  endfacet
  facet normal 0.993884 0.110432 -0
    outer loop
      vertex -73.074 23.187 0
      vertex -73.074 23.187 1.5
      vertex -73.067 23.124 0
    endloop
  endfacet
  facet normal 0.993884 0.110432 0
    outer loop
      vertex -73.067 23.124 1.5
      vertex -73.067 23.124 0
      vertex -73.074 23.187 1.5
    endloop
  endfacet
  facet normal 0 -1 0
    outer loop
      vertex -56.213 23.187 0
      vertex -56.213 23.187 1.5
      vertex -73.074 23.187 0
    endloop
  endfacet
  facet normal 0 -1 0
    outer loop
      vertex -73.074 23.187 1.5
      vertex -73.074 23.187 0
      vertex -56.213 23.187 1.5
    endloop
  endfacet
  facet normal -0.922966 0.384881 0
    outer loop
      vertex -56.625 22.199 0
      vertex -56.625 22.199 1.5
      vertex -56.213 23.187 0
    endloop
  endfacet
  facet normal -0.922966 0.384881 0
    outer loop
      vertex -56.213 23.187 1.5
      vertex -56.213 23.187 0
      vertex -56.625 22.199 1.5
    endloop
  endfacet
  facet normal 0 1 0
    outer loop
      vertex -72.852 22.199 0
      vertex -72.852 22.199 1.5
      vertex -56.625 22.199 0
    endloop
  endfacet
  facet normal 0 1 0
    outer loop
      vertex -56.625 22.199 1.5
      vertex -56.625 22.199 0
      vertex -72.852 22.199 1.5
    endloop
  endfacet
  facet normal 0.923629 0.383287 -0
    outer loop
      vertex -51.38 23.187 0
      vertex -51.38 23.187 1.5
      vertex -50.97 22.199 0
    endloop
  endfacet
  facet normal 0.923629 0.383287 0
    outer loop
      vertex -50.97 22.199 1.5
      vertex -50.97 22.199 0
      vertex -51.38 23.187 1.5
    endloop
  endfacet
  facet normal 0 -1 0
    outer loop
      vertex -34.547 23.187 0
      vertex -34.547 23.187 1.5
      vertex -51.38 23.187 0
    endloop
  endfacet
  facet normal 0 -1 0
    outer loop
      vertex -51.38 23.187 1.5
      vertex -51.38 23.187 0
      vertex -34.547 23.187 1.5
    endloop
  endfacet
  facet normal -0.968968 0.247186 0
    outer loop
      vertex -34.572 23.089 0
      vertex -34.572 23.089 1.5
      vertex -34.547 23.187 0
    endloop
  endfacet
  facet normal -0.968968 0.247186 0
    outer loop
      vertex -34.547 23.187 1.5
      vertex -34.547 23.187 0
      vertex -34.572 23.089 1.5
    endloop
  endfacet
  facet normal -0.982308 0.187274 0
    outer loop
      vertex -34.678 22.533 0
      vertex -34.678 22.533 1.5
      vertex -34.572 23.089 0
    endloop
  endfacet
  facet normal -0.982308 0.187274 0
    outer loop
      vertex -34.572 23.089 1.5
      vertex -34.572 23.089 0
      vertex -34.678 22.533 1.5
    endloop
  endfacet
  facet normal -0.979898 0.1995 0
    outer loop
      vertex -34.746 22.199 0
      vertex -34.746 22.199 1.5
      vertex -34.678 22.533 0
    endloop
  endfacet
  facet normal -0.979898 0.1995 0
    outer loop
      vertex -34.678 22.533 1.5
      vertex -34.678 22.533 0
      vertex -34.746 22.199 1.5
    endloop
  endfacet
  facet normal 0 1 0
    outer loop
      vertex -50.97 22.199 0
      vertex -50.97 22.199 1.5
      vertex -34.746 22.199 0
    endloop
  endfacet
  facet normal 0 1 0
    outer loop
      vertex -34.746 22.199 1.5
      vertex -34.746 22.199 0
      vertex -50.97 22.199 1.5
    endloop
  endfacet
  facet normal 0.946849 0.32168 -0
    outer loop
      vertex -72.61 21.21 0
      vertex -72.61 21.21 1.5
      vertex -72.274 20.221 0
    endloop
  endfacet
  facet normal 0.946849 0.32168 0
    outer loop
      vertex -72.274 20.221 1.5
      vertex -72.274 20.221 0
      vertex -72.61 21.21 1.5
    endloop
  endfacet
  facet normal 0 -1 0
    outer loop
      vertex -57.028 21.21 0
      vertex -57.028 21.21 1.5
      vertex -72.61 21.21 0
    endloop
  endfacet
  facet normal 0 -1 0
    outer loop
      vertex -72.61 21.21 1.5
      vertex -72.61 21.21 0
      vertex -57.028 21.21 1.5
    endloop
  endfacet
  facet normal -0.894427 0.447214 0
    outer loop
      vertex -57.029 21.208 0
      vertex -57.029 21.208 1.5
      vertex -57.028 21.21 0
    endloop
  endfacet
  facet normal -0.894427 0.447214 0
    outer loop
      vertex -57.028 21.21 1.5
      vertex -57.028 21.21 0
      vertex -57.029 21.208 1.5
    endloop
  endfacet
  facet normal -0.916774 0.399405 0
    outer loop
      vertex -57.459 20.221 0
      vertex -57.459 20.221 1.5
      vertex -57.029 21.208 0
    endloop
  endfacet
  facet normal -0.916774 0.399405 0
    outer loop
      vertex -57.029 21.208 1.5
      vertex -57.029 21.208 0
      vertex -57.459 20.221 1.5
    endloop
  endfacet
  facet normal 0 1 0
    outer loop
      vertex -72.274 20.221 0
      vertex -72.274 20.221 1.5
      vertex -57.459 20.221 0
    endloop
  endfacet
  facet normal 0 1 0
    outer loop
      vertex -57.459 20.221 1.5
      vertex -57.459 20.221 0
      vertex -72.274 20.221 1.5
    endloop
  endfacet
  facet normal 0.915711 0.401839 -0
    outer loop
      vertex -50.564 21.21 0
      vertex -50.564 21.21 1.5
      vertex -50.13 20.221 0
    endloop
  endfacet
  facet normal 0.915711 0.401839 0
    outer loop
      vertex -50.13 20.221 1.5
      vertex -50.13 20.221 0
      vertex -50.564 21.21 1.5
    endloop
  endfacet
  facet normal 0 -1 0
    outer loop
      vertex -34.984 21.21 0
      vertex -34.984 21.21 1.5
      vertex -50.564 21.21 0
    endloop
  endfacet
  facet normal 0 -1 0
    outer loop
      vertex -50.564 21.21 1.5
      vertex -50.564 21.21 0
      vertex -34.984 21.21 1.5
    endloop
  endfacet
  facet normal -0.958288 0.285805 0
    outer loop
      vertex -35.154 20.64 0
      vertex -35.154 20.64 1.5
      vertex -34.984 21.21 0
    endloop
  endfacet
  facet normal -0.958288 0.285805 0
    outer loop
      vertex -34.984 21.21 1.5
      vertex -34.984 21.21 0
      vertex -35.154 20.64 1.5
    endloop
  endfacet
  facet normal -0.931963 0.362554 0
    outer loop
      vertex -35.317 20.221 0
      vertex -35.317 20.221 1.5
      vertex -35.154 20.64 0
    endloop
  endfacet
  facet normal -0.931963 0.362554 0
    outer loop
      vertex -35.154 20.64 1.5
      vertex -35.154 20.64 0
      vertex -35.317 20.221 1.5
    endloop
  endfacet
  facet normal 0 1 0
    outer loop
      vertex -50.13 20.221 0
      vertex -50.13 20.221 1.5
      vertex -35.317 20.221 0
    endloop
  endfacet
  facet normal 0 1 0
    outer loop
      vertex -35.317 20.221 1.5
      vertex -35.317 20.221 0
      vertex -50.13 20.221 1.5
    endloop
  endfacet
  facet normal 0.83464 0.550795 -0
    outer loop
      vertex -71.803 19.232 0
      vertex -71.803 19.232 1.5
      vertex -71.151 18.244 0
    endloop
  endfacet
  facet normal 0.83464 0.550795 0
    outer loop
      vertex -71.151 18.244 1.5
      vertex -71.151 18.244 0
      vertex -71.803 19.232 1.5
    endloop
  endfacet
  facet normal 0 -1 0
    outer loop
      vertex -58.004 19.232 0
      vertex -58.004 19.232 1.5
      vertex -71.803 19.232 0
    endloop
  endfacet
  facet normal 0 -1 0
    outer loop
      vertex -71.803 19.232 1.5
      vertex -71.803 19.232 0
      vertex -58.004 19.232 1.5
    endloop
  endfacet
  facet normal -0.810257 0.586075 0
    outer loop
      vertex -58.553 18.473 0
      vertex -58.553 18.473 1.5
      vertex -58.004 19.232 0
    endloop
  endfacet
  facet normal -0.810257 0.586075 0
    outer loop
      vertex -58.004 19.232 1.5
      vertex -58.004 19.232 0
      vertex -58.553 18.473 1.5
    endloop
  endfacet
  facet normal -0.771249 0.636533 0
    outer loop
      vertex -58.742 18.244 0
      vertex -58.742 18.244 1.5
      vertex -58.553 18.473 0
    endloop
  endfacet
  facet normal -0.771249 0.636533 0
    outer loop
      vertex -58.553 18.473 1.5
      vertex -58.553 18.473 0
      vertex -58.742 18.244 1.5
    endloop
  endfacet
  facet normal 0 1 0
    outer loop
      vertex -71.151 18.244 0
      vertex -71.151 18.244 1.5
      vertex -58.742 18.244 0
    endloop
  endfacet
  facet normal 0 1 0
    outer loop
      vertex -58.742 18.244 1.5
      vertex -58.742 18.244 0
      vertex -71.151 18.244 1.5
    endloop
  endfacet
  facet normal 0.800763 0.598982 -0
    outer loop
      vertex -49.508 19.125 0
      vertex -49.508 19.125 1.5
      vertex -48.849 18.244 0
    endloop
  endfacet
  facet normal 0.800763 0.598982 0
    outer loop
      vertex -48.849 18.244 1.5
      vertex -48.849 18.244 0
      vertex -49.508 19.125 1.5
    endloop
  endfacet
  facet normal 0.836832 0.54746 -0
    outer loop
      vertex -49.578 19.232 0
      vertex -49.578 19.232 1.5
      vertex -49.508 19.125 0
    endloop
  endfacet
  facet normal 0.836832 0.54746 0
    outer loop
      vertex -49.508 19.125 1.5
      vertex -49.508 19.125 0
      vertex -49.578 19.232 1.5
    endloop
  endfacet
  facet normal 0 -1 0
    outer loop
      vertex -35.794 19.232 0
      vertex -35.794 19.232 1.5
      vertex -49.578 19.232 0
    endloop
  endfacet
  facet normal 0 -1 0
    outer loop
      vertex -49.578 19.232 1.5
      vertex -49.578 19.232 0
      vertex -35.794 19.232 1.5
    endloop
  endfacet
  facet normal -0.837358 0.546656 0
    outer loop
      vertex -36.439 18.244 0
      vertex -36.439 18.244 1.5
      vertex -35.794 19.232 0
    endloop
  endfacet
  facet normal -0.837358 0.546656 0
    outer loop
      vertex -35.794 19.232 1.5
      vertex -35.794 19.232 0
      vertex -36.439 18.244 1.5
    endloop
  endfacet
  facet normal 0 1 0
    outer loop
      vertex -48.849 18.244 0
      vertex -48.849 18.244 1.5
      vertex -36.439 18.244 0
    endloop
  endfacet
  facet normal 0 1 0
    outer loop
      vertex -36.439 18.244 1.5
      vertex -36.439 18.244 0
      vertex -48.849 18.244 1.5
    endloop
  endfacet
  facet normal 0.567746 0.823204 -0
    outer loop
      vertex -70.254 17.255 0
      vertex -70.254 17.255 1.5
      vertex -68.82 16.266 0
    endloop
  endfacet
  facet normal 0.567746 0.823204 0
    outer loop
      vertex -68.82 16.266 1.5
      vertex -68.82 16.266 0
      vertex -70.254 17.255 1.5
    endloop
  endfacet
  facet normal 0 -1 0
    outer loop
      vertex -59.732 17.255 0
      vertex -59.732 17.255 1.5
      vertex -70.254 17.255 0
    endloop
  endfacet
  facet normal 0 -1 0
    outer loop
      vertex -70.254 17.255 1.5
      vertex -70.254 17.255 0
      vertex -59.732 17.255 1.5
    endloop
  endfacet
  facet normal -0.554571 0.832137 0
    outer loop
      vertex -61.216 16.266 0
      vertex -61.216 16.266 1.5
      vertex -59.732 17.255 0
    endloop
  endfacet
  facet normal -0.554571 0.832137 0
    outer loop
      vertex -59.732 17.255 1.5
      vertex -59.732 17.255 0
      vertex -61.216 16.266 1.5
    endloop
  endfacet
  facet normal 0 1 0
    outer loop
      vertex -68.82 16.266 0
      vertex -68.82 16.266 1.5
      vertex -61.216 16.266 0
    endloop
  endfacet
  facet normal 0 1 0
    outer loop
      vertex -61.216 16.266 1.5
      vertex -61.216 16.266 0
      vertex -68.82 16.266 1.5
    endloop
  endfacet
  facet normal 0.55769 0.83005 -0
    outer loop
      vertex -47.864 17.255 0
      vertex -47.864 17.255 1.5
      vertex -46.392 16.266 0
    endloop
  endfacet
  facet normal 0.55769 0.83005 0
    outer loop
      vertex -46.392 16.266 1.5
      vertex -46.392 16.266 0
      vertex -47.864 17.255 1.5
    endloop
  endfacet
  facet normal 0 -1 0
    outer loop
      vertex -37.348 17.255 0
      vertex -37.348 17.255 1.5
      vertex -47.864 17.255 0
    endloop
  endfacet
  facet normal 0 -1 0
    outer loop
      vertex -47.864 17.255 1.5
      vertex -47.864 17.255 0
      vertex -37.348 17.255 1.5
    endloop
  endfacet
  facet normal -0.656582 0.754255 0
    outer loop
      vertex -37.487 17.134 0
      vertex -37.487 17.134 1.5
      vertex -37.348 17.255 0
    endloop
  endfacet
  facet normal -0.656582 0.754255 0
    outer loop
      vertex -37.348 17.255 1.5
      vertex -37.348 17.255 0
      vertex -37.487 17.134 1.5
    endloop
  endfacet
  facet normal -0.563962 0.825801 0
    outer loop
      vertex -38.758 16.266 0
      vertex -38.758 16.266 1.5
      vertex -37.487 17.134 0
    endloop
  endfacet
  facet normal -0.563962 0.825801 0
    outer loop
      vertex -37.487 17.134 1.5
      vertex -37.487 17.134 0
      vertex -38.758 16.266 1.5
    endloop
  endfacet
  facet normal 0 1 0
    outer loop
      vertex -46.392 16.266 0
      vertex -46.392 16.266 1.5
      vertex -38.758 16.266 0
    endloop
  endfacet
  facet normal 0 1 0
    outer loop
      vertex -38.758 16.266 1.5
      vertex -38.758 16.266 0
      vertex -46.392 16.266 1.5
    endloop
  endfacet
endsolid OpenSCAD_Model
