<?xml version="1.0" encoding="UTF-8" standalone="no"?>
<!-- Created with Inkscape (http://www.inkscape.org/) -->

<svg
   xmlns:dc="http://purl.org/dc/elements/1.1/"
   xmlns:cc="http://creativecommons.org/ns#"
   xmlns:rdf="http://www.w3.org/1999/02/22-rdf-syntax-ns#"
   xmlns:svg="http://www.w3.org/2000/svg"
   xmlns="http://www.w3.org/2000/svg"
   xmlns:sodipodi="http://sodipodi.sourceforge.net/DTD/sodipodi-0.dtd"
   xmlns:inkscape="http://www.inkscape.org/namespaces/inkscape"
   width="149.99998mm"
   height="66.449394mm"
   viewBox="0 0 149.99998 66.449394"
   version="1.1"
   id="svg1548"
   inkscape:version="0.92.5 (2060ec1f9f, 2020-04-08)"
   sodipodi:docname="shape.svg">
  <defs
     id="defs1542" />
  <sodipodi:namedview
     id="base"
     pagecolor="#ffffff"
     bordercolor="#666666"
     borderopacity="1.0"
     inkscape:pageopacity="0.0"
     inkscape:pageshadow="2"
     inkscape:zoom="0.35"
     inkscape:cx="220.6074"
     inkscape:cy="17.002225"
     inkscape:document-units="mm"
     inkscape:current-layer="layer1"
     showgrid="false"
     fit-margin-top="0"
     fit-margin-left="0"
     fit-margin-right="0"
     fit-margin-bottom="0"
     inkscape:window-width="1920"
     inkscape:window-height="1080"
     inkscape:window-x="1920"
     inkscape:window-y="0"
     inkscape:window-maximized="0" />
  <metadata
     id="metadata1545">
    <rdf:RDF>
      <cc:Work
         rdf:about="">
        <dc:format>image/svg+xml</dc:format>
        <dc:type
           rdf:resource="http://purl.org/dc/dcmitype/StillImage" />
        <dc:title></dc:title>
      </cc:Work>
    </rdf:RDF>
  </metadata>
  <g
     inkscape:label="Layer 1"
     inkscape:groupmode="layer"
     id="layer1"
     transform="translate(-37.636912,-78.566969)">
    <path
       style="fill:#333333;stroke-width:0.17087474"
       d="m 112.70843,78.566969 c -18.981321,0 -37.962615,0.0591 -39.816691,0.17725 -8.61332,0.54894 -13.994029,1.73331 -18.992638,4.18114 -5.86392,2.87157 -9.374246,6.91281 -11.429277,13.15786 -0.504279,1.53245 -0.904254,2.46125 -1.150834,2.67115 -0.20792,0.17697 -1.009389,0.62708 -1.78077,0.99994 -0.77138,0.372861 -1.523704,0.862891 -1.671734,1.088821 -0.23179,0.35377 -0.26029,1.02378 -0.20619,4.83175 0.0857,6.0304 0.0412,5.86668 2.150259,7.90339 1.44234,1.3929 1.720944,1.74911 1.820044,2.32803 1.4633,8.54994 4.152599,14.57267 8.828919,19.77192 4.336059,4.82094 10.763525,8.07431 17.992182,9.10745 2.378152,0.33989 7.541557,0.21915 10.166819,-0.23771 7.93279,-1.38051 14.73075,-5.42103 19.76624,-11.74916 2.435471,-3.06066 3.984121,-5.83019 5.862691,-10.48463 2.92671,-7.25133 4.67558,-11.24765 5.37073,-12.27108 0.619,-0.91132 1.37387,-1.24254 2.9192,-1.28054 1.45518,-0.0358 2.57703,0.3231 3.08302,0.9865 0.66048,0.86593 2.1203,4.17838 5.45445,12.37702 1.48469,3.65084 2.58248,5.82385 4.11034,8.13387 6.55718,9.91397 16.95369,15.21553 28.87473,14.7252 7.06695,-0.29068 13.31579,-2.65657 18.45469,-6.9882 3.98549,-3.35939 7.19217,-8.15983 9.2139,-13.79244 0.55791,-1.55438 1.31777,-4.55865 1.8185,-7.18768 l 0.37465,-1.96474 1.59008,-1.54977 c 1.06629,-1.03904 1.62332,-1.71475 1.68982,-2.05052 0.0546,-0.27544 0.17467,-0.82862 0.26717,-1.22938 0.0925,-0.40078 0.16795,-2.59437 0.16795,-4.87464 0,-4.84858 0.0595,-4.66427 -1.7787,-5.501991 -1.32908,-0.60568 -2.32234,-1.34489 -2.32234,-1.72858 0,-0.59935 -1.27125,-4.09082 -2.03812,-5.59707 -2.18817,-4.29785 -5.32889,-7.31067 -10.00817,-9.60097 -4.98739,-2.4411 -10.37691,-3.62766 -18.96422,-4.17494 -1.85408,-0.11816 -20.83538,-0.17725 -39.8167,-0.17725 z m -57.928246,7.53288 H 170.62842 c 1.99719,1.03131 3.58621,2.15843 4.90512,3.50004 H 49.823381 c 1.330742,-1.34175 2.951222,-2.46776 4.956803,-3.50004 z m -7.54786,6.99957 H 178.14424 c 0.16342,0.28748 0.32384,0.5804 0.47904,0.88522 0.24007,0.47154 0.71271,1.60232 1.08727,2.61483 H 45.705286 c 0.450358,-1.29499 0.951982,-2.45441 1.527038,-3.50005 z m -2.286165,7.000091 H 180.48828 c 0.22384,1.41253 0.39249,2.51348 0.53278,3.50004 H 44.36945 c 0.140011,-1.08693 0.330681,-2.24287 0.576709,-3.50004 z m -0.869197,7.00009 h 63.870008 c -0.39611,0.35523 -0.73834,0.74682 -0.99943,1.1312 -0.46397,0.68308 -0.83602,1.41927 -1.26917,2.36884 H 44.125537 c -0.071,-1.18297 -0.08905,-2.32915 -0.04857,-3.50004 z m 73.494218,0 h 63.81679 c 0.0475,1.11576 -0.002,2.17717 -0.13281,3.50004 h -61.52132 c -0.5327,-1.20369 -0.90911,-1.9729 -1.54615,-2.80809 -0.19681,-0.25803 -0.40265,-0.48779 -0.61651,-0.69195 z m -73.117497,7.00009 h 59.690937 c -0.43524,1.02196 -0.92692,2.2033 -1.46038,3.50004 H 45.241231 c -0.151171,-0.72406 -0.295935,-1.46414 -0.428397,-2.2381 -0.05164,-0.3017 -0.173549,-0.66938 -0.331763,-1.0387 -0.0091,-0.0744 -0.01852,-0.14948 -0.02739,-0.22324 z m 76.796347,0 h 59.59068 a 3.2272645,3.2272645 0 0 0 -0.0884,0.34778 l -0.37518,1.96681 c -0.0733,0.38459 -0.15554,0.78349 -0.24132,1.18545 h -57.43264 c -0.51945,-1.26107 -1.0424,-2.52965 -1.45314,-3.50004 z m -75.152003,7.00009 h 55.159423 c -0.001,0.003 -0.002,0.005 -0.003,0.008 -0.53903,1.33552 -1.03406,2.46691 -1.523421,3.49229 H 47.287618 c -0.440366,-1.10061 -0.834304,-2.26406 -1.189591,-3.50004 z m 78.043303,0 h 55.15374 c -0.22842,0.84975 -0.44208,1.56595 -0.60358,2.0159 -0.18081,0.50375 -0.37487,0.99689 -0.57568,1.48414 h -52.43866 c -0.47701,-0.99042 -0.97105,-2.11842 -1.53582,-3.50004 z m -75.185597,7.00009 h 48.848696 c -0.58266,0.90428 -1.21399,1.77162 -1.94458,2.68975 -0.21942,0.27575 -0.44362,0.54452 -0.66973,0.81029 h -43.9291 c -0.855419,-1.11357 -1.619361,-2.27242 -2.305286,-3.50004 z m 78.676327,0 h 48.79549 c -0.69778,1.24818 -1.46224,2.42 -2.28565,3.50004 h -43.92911 c -0.8241,-0.97391 -1.60442,-2.01344 -2.33577,-3.11919 -0.0847,-0.12812 -0.16323,-0.25402 -0.24496,-0.38085 z m -73.192424,6.99957 h 37.247343 c -1.62748,1.37202 -3.38205,2.53945 -5.25446,3.50004 H 59.513745 c -1.879985,-0.98367 -3.589127,-2.15961 -5.074109,-3.50004 z m 79.258214,0 h 37.22667 c -0.1627,0.1455 -0.32515,0.29065 -0.49041,0.42995 -1.41566,1.19327 -2.91647,2.21631 -4.50205,3.07009 h -27.02212 c -1.85127,-0.95858 -3.5937,-2.12676 -5.21209,-3.50004 z"
       id="path37"
       inkscape:connector-curvature="0" />
  </g>
</svg>
