  0
SECTION
  2
HEADER
  9
$ACADVER
  1
AC1014
  9
$HANDSEED
  5
FFFF
  9
$MEASUREMENT
 70
     1
  0
ENDSEC
  0
SECTION
  2
TABLES
  0
TABLE
  2
VPORT
  5
8
330
0
100
AcDbSymbolTable
 70
     4
  0
VPORT
  5
2E
330
8
100
AcDbSymbolTableRecord
100
AcDbViewportTableRecord
  2
*ACTIVE
 70
     0
 10
0.0
 20
0.0
 11
1.0
 21
1.0
 12
210.0
 22
148.5
 13
0.0
 23
0.0
 14
10.0
 24
10.0
 15
10.0
 25
10.0
 16
0.0
 26
0.0
 36
1.0
 17
0.0
 27
0.0
 37
0.0
 40
341.0
 41
1.24
 42
50.0
 43
0.0
 44
0.0
 50
0.0
 51
0.0
 71
     0
 72
   100
 73
     1
 74
     3
 75
     0
 76
     0
 77
     0
 78
     0
  0
ENDTAB
  0
TABLE
  2
LTYPE
  5
5
330
0
100
AcDbSymbolTable
 70
     1
  0
LTYPE
  5
14
330
5
100
AcDbSymbolTableRecord
100
AcDbLinetypeTableRecord
  2
BYBLOCK
 70
     0
  3

 72
    65
 73
     0
 40
0.0
  0
LTYPE
  5
15
330
5
100
AcDbSymbolTableRecord
100
AcDbLinetypeTableRecord
  2
BYLAYER
 70
     0
  3

 72
    65
 73
     0
 40
0.0
  0
LTYPE
  5
16
330
5
100
AcDbSymbolTableRecord
100
AcDbLinetypeTableRecord
  2
CONTINUOUS
 70
     0
  3
Solid line
 72
    65
 73
     0
 40
0.0
  0
ENDTAB
  0
TABLE
  2
LAYER
  5
2
100
AcDbSymbolTable
 70
2
  0
LAYER
  5
50
100
AcDbSymbolTableRecord
100
AcDbLayerTableRecord
  2
0
 70
0
  6
CONTINUOUS
  0
LAYER
  5
51
100
AcDbSymbolTableRecord
100
AcDbLayerTableRecord
  2
Layer_1
 70
0
  6
CONTINUOUS
  0
ENDTAB
  0
TABLE
  2
STYLE
  5
3
330
0
100
AcDbSymbolTable
 70
     1
  0
STYLE
  5
11
330
3
100
AcDbSymbolTableRecord
100
AcDbTextStyleTableRecord
  2
STANDARD
 70
     0
 40
0.0
 41
1.0
 50
0.0
 71
     0
 42
2.5
  3
txt
  4

  0
ENDTAB
  0
TABLE
  2
VIEW
  5
6
330
0
100
AcDbSymbolTable
 70
     0
  0
ENDTAB
  0
TABLE
  2
UCS
  5
7
330
0
100
AcDbSymbolTable
 70
     0
  0
ENDTAB
  0
TABLE
  2
APPID
  5
9
330
0
100
AcDbSymbolTable
 70
     2
  0
APPID
  5
12
330
9
100
AcDbSymbolTableRecord
100
AcDbRegAppTableRecord
  2
ACAD
 70
     0
  0
ENDTAB
  0
TABLE
  2
DIMSTYLE
  5
A
330
0
100
AcDbSymbolTable
 70
     1
  0
DIMSTYLE
105
27
330
A
100
AcDbSymbolTableRecord
100
AcDbDimStyleTableRecord
  2
ISO-25
 70
     0
  3

  4

  5

  6

  7

 40
1.0
 41
2.5
 42
0.625
 43
3.75
 44
1.25
 45
0.0
 46
0.0
 47
0.0
 48
0.0
140
2.5
141
2.5
142
0.0
143
0.03937007874016
144
1.0
145
0.0
146
1.0
147
0.625
 71
     0
 72
     0
 73
     0
 74
     0
 75
     0
 76
     0
 77
     1
 78
     8
170
     0
171
     3
172
     1
173
     0
174
     0
175
     0
176
     0
177
     0
178
     0
270
     2
271
     2
272
     2
273
     2
274
     3
340
11
275
     0
280
     0
281
     0
282
     0
283
     0
284
     8
285
     0
286
     0
287
     3
288
     0
  0
ENDTAB
  0
TABLE
  2
BLOCK_RECORD
  5
1
330
0
100
AcDbSymbolTable
 70
     1
  0
BLOCK_RECORD
  5
1F
330
1
100
AcDbSymbolTableRecord
100
AcDbBlockTableRecord
  2
*MODEL_SPACE
  0
BLOCK_RECORD
  5
1B
330
1
100
AcDbSymbolTableRecord
100
AcDbBlockTableRecord
  2
*PAPER_SPACE
  0
ENDTAB
  0
ENDSEC
  0
SECTION
  2
BLOCKS
  0
BLOCK
  5
20
330
1F
100
AcDbEntity
  8
0
100
AcDbBlockBegin
  2
*MODEL_SPACE
 70
     0
 10
0.0
 20
0.0
 30
0.0
  3
*MODEL_SPACE
  1

  0
ENDBLK
  5
21
330
1F
100
AcDbEntity
  8
0
100
AcDbBlockEnd
  0
BLOCK
  5
1C
330
1B
100
AcDbEntity
 67
     1
  8
0
100
AcDbBlockBegin
  2
*PAPER_SPACE
  1

  0
ENDBLK
  5
1D
330
1B
100
AcDbEntity
 67
     1
  8
0
100
AcDbBlockEnd
  0
ENDSEC
  0
SECTION
  2
ENTITIES
  0
SPLINE
  5
100
100
AcDbEntity
  8
Layer_1
 62
7
100
AcDbSpline
 70
8
 71
3
 72
8
 73
4
 74
0
 40
0
 40
0
 40
0
 40
0
 40
1
 40
1
 40
1
 40
1
 10
75.071518
 20
66.449394
 30
0.0
 10
56.090197
 20
66.449394
 30
0.0
 10
37.108903
 20
66.390294
 30
0.0
 10
35.254827
 20
66.272144
 30
0.0
  0
SPLINE
  5
101
100
AcDbEntity
  8
Layer_1
 62
7
100
AcDbSpline
 70
8
 71
3
 72
8
 73
4
 74
0
 40
0
 40
0
 40
0
 40
0
 40
1
 40
1
 40
1
 40
1
 10
35.254827
 20
66.272144
 30
0.0
 10
26.641507
 20
65.723204
 30
0.0
 10
21.260798
 20
64.538834
 30
0.0
 10
16.262189
 20
62.091004
 30
0.0
  0
SPLINE
  5
102
100
AcDbEntity
  8
Layer_1
 62
7
100
AcDbSpline
 70
8
 71
3
 72
8
 73
4
 74
0
 40
0
 40
0
 40
0
 40
0
 40
1
 40
1
 40
1
 40
1
 10
16.262189
 20
62.091004
 30
0.0
 10
10.398269
 20
59.219434
 30
0.0
 10
6.887943
 20
55.178194
 30
0.0
 10
4.832912
 20
48.933144
 30
0.0
  0
SPLINE
  5
103
100
AcDbEntity
  8
Layer_1
 62
7
100
AcDbSpline
 70
8
 71
3
 72
8
 73
4
 74
0
 40
0
 40
0
 40
0
 40
0
 40
1
 40
1
 40
1
 40
1
 10
4.832912
 20
48.933144
 30
0.0
 10
4.328633
 20
47.400694
 30
0.0
 10
3.928658
 20
46.471894
 30
0.0
 10
3.682078
 20
46.261994
 30
0.0
  0
SPLINE
  5
104
100
AcDbEntity
  8
Layer_1
 62
7
100
AcDbSpline
 70
8
 71
3
 72
8
 73
4
 74
0
 40
0
 40
0
 40
0
 40
0
 40
1
 40
1
 40
1
 40
1
 10
3.682078
 20
46.261994
 30
0.0
 10
3.474158
 20
46.085024
 30
0.0
 10
2.672689
 20
45.634914
 30
0.0
 10
1.901308
 20
45.262054
 30
0.0
  0
SPLINE
  5
105
100
AcDbEntity
  8
Layer_1
 62
7
100
AcDbSpline
 70
8
 71
3
 72
8
 73
4
 74
0
 40
0
 40
0
 40
0
 40
0
 40
1
 40
1
 40
1
 40
1
 10
1.901308
 20
45.262054
 30
0.0
 10
1.129928
 20
44.889193
 30
0.0
 10
0.377604
 20
44.399163
 30
0.0
 10
0.229574
 20
44.173233
 30
0.0
  0
SPLINE
  5
106
100
AcDbEntity
  8
Layer_1
 62
7
100
AcDbSpline
 70
8
 71
3
 72
8
 73
4
 74
0
 40
0
 40
0
 40
0
 40
0
 40
1
 40
1
 40
1
 40
1
 10
0.229574
 20
44.173233
 30
0.0
 10
-0.002216
 20
43.819463
 30
0.0
 10
-0.030716
 20
43.149453
 30
0.0
 10
0.023384
 20
39.341483
 30
0.0
  0
SPLINE
  5
107
100
AcDbEntity
  8
Layer_1
 62
7
100
AcDbSpline
 70
8
 71
3
 72
8
 73
4
 74
0
 40
0
 40
0
 40
0
 40
0
 40
1
 40
1
 40
1
 40
1
 10
0.023384
 20
39.341483
 30
0.0
 10
0.109084
 20
33.311083
 30
0.0
 10
0.064584
 20
33.474803
 30
0.0
 10
2.173643
 20
31.438093
 30
0.0
  0
SPLINE
  5
108
100
AcDbEntity
  8
Layer_1
 62
7
100
AcDbSpline
 70
8
 71
3
 72
8
 73
4
 74
0
 40
0
 40
0
 40
0
 40
0
 40
1
 40
1
 40
1
 40
1
 10
2.173643
 20
31.438093
 30
0.0
 10
3.615983
 20
30.045193
 30
0.0
 10
3.894587
 20
29.688983
 30
0.0
 10
3.993687
 20
29.110063
 30
0.0
  0
SPLINE
  5
109
100
AcDbEntity
  8
Layer_1
 62
7
100
AcDbSpline
 70
8
 71
3
 72
8
 73
4
 74
0
 40
0
 40
0
 40
0
 40
0
 40
1
 40
1
 40
1
 40
1
 10
3.993687
 20
29.110063
 30
0.0
 10
5.456987
 20
20.560123
 30
0.0
 10
8.146286
 20
14.537393
 30
0.0
 10
12.822606
 20
9.338143
 30
0.0
  0
SPLINE
  5
10a
100
AcDbEntity
  8
Layer_1
 62
7
100
AcDbSpline
 70
8
 71
3
 72
8
 73
4
 74
0
 40
0
 40
0
 40
0
 40
0
 40
1
 40
1
 40
1
 40
1
 10
12.822606
 20
9.338143
 30
0.0
 10
17.158665
 20
4.517203
 30
0.0
 10
23.586131
 20
1.263833
 30
0.0
 10
30.814788
 20
0.230693
 30
0.0
  0
SPLINE
  5
10b
100
AcDbEntity
  8
Layer_1
 62
7
100
AcDbSpline
 70
8
 71
3
 72
8
 73
4
 74
0
 40
0
 40
0
 40
0
 40
0
 40
1
 40
1
 40
1
 40
1
 10
30.814788
 20
0.230693
 30
0.0
 10
33.192940
 20
-0.109197
 30
0.0
 10
38.356345
 20
0.011543
 30
0.0
 10
40.981607
 20
0.468403
 30
0.0
  0
SPLINE
  5
10c
100
AcDbEntity
  8
Layer_1
 62
7
100
AcDbSpline
 70
8
 71
3
 72
8
 73
4
 74
0
 40
0
 40
0
 40
0
 40
0
 40
1
 40
1
 40
1
 40
1
 10
40.981607
 20
0.468403
 30
0.0
 10
48.914397
 20
1.848913
 30
0.0
 10
55.712357
 20
5.889433
 30
0.0
 10
60.747847
 20
12.217563
 30
0.0
  0
SPLINE
  5
10d
100
AcDbEntity
  8
Layer_1
 62
7
100
AcDbSpline
 70
8
 71
3
 72
8
 73
4
 74
0
 40
0
 40
0
 40
0
 40
0
 40
1
 40
1
 40
1
 40
1
 10
60.747847
 20
12.217563
 30
0.0
 10
63.183318
 20
15.278223
 30
0.0
 10
64.731968
 20
18.047753
 30
0.0
 10
66.610538
 20
22.702193
 30
0.0
  0
SPLINE
  5
10e
100
AcDbEntity
  8
Layer_1
 62
7
100
AcDbSpline
 70
8
 71
3
 72
8
 73
4
 74
0
 40
0
 40
0
 40
0
 40
0
 40
1
 40
1
 40
1
 40
1
 10
66.610538
 20
22.702193
 30
0.0
 10
69.537248
 20
29.953523
 30
0.0
 10
71.286118
 20
33.949843
 30
0.0
 10
71.981268
 20
34.973273
 30
0.0
  0
SPLINE
  5
10f
100
AcDbEntity
  8
Layer_1
 62
7
100
AcDbSpline
 70
8
 71
3
 72
8
 73
4
 74
0
 40
0
 40
0
 40
0
 40
0
 40
1
 40
1
 40
1
 40
1
 10
71.981268
 20
34.973273
 30
0.0
 10
72.600268
 20
35.884593
 30
0.0
 10
73.355138
 20
36.215813
 30
0.0
 10
74.900468
 20
36.253813
 30
0.0
  0
SPLINE
  5
110
100
AcDbEntity
  8
Layer_1
 62
7
100
AcDbSpline
 70
8
 71
3
 72
8
 73
4
 74
0
 40
0
 40
0
 40
0
 40
0
 40
1
 40
1
 40
1
 40
1
 10
74.900468
 20
36.253813
 30
0.0
 10
76.355648
 20
36.289613
 30
0.0
 10
77.477498
 20
35.930713
 30
0.0
 10
77.983488
 20
35.267313
 30
0.0
  0
SPLINE
  5
111
100
AcDbEntity
  8
Layer_1
 62
7
100
AcDbSpline
 70
8
 71
3
 72
8
 73
4
 74
0
 40
0
 40
0
 40
0
 40
0
 40
1
 40
1
 40
1
 40
1
 10
77.983488
 20
35.267313
 30
0.0
 10
78.643968
 20
34.401383
 30
0.0
 10
80.103788
 20
31.088933
 30
0.0
 10
83.437938
 20
22.890293
 30
0.0
  0
SPLINE
  5
112
100
AcDbEntity
  8
Layer_1
 62
7
100
AcDbSpline
 70
8
 71
3
 72
8
 73
4
 74
0
 40
0
 40
0
 40
0
 40
0
 40
1
 40
1
 40
1
 40
1
 10
83.437938
 20
22.890293
 30
0.0
 10
84.922628
 20
19.239453
 30
0.0
 10
86.020418
 20
17.066443
 30
0.0
 10
87.548278
 20
14.756423
 30
0.0
  0
SPLINE
  5
113
100
AcDbEntity
  8
Layer_1
 62
7
100
AcDbSpline
 70
8
 71
3
 72
8
 73
4
 74
0
 40
0
 40
0
 40
0
 40
0
 40
1
 40
1
 40
1
 40
1
 10
87.548278
 20
14.756423
 30
0.0
 10
94.105458
 20
4.842453
 30
0.0
 10
104.501968
 20
-0.459107
 30
0.0
 10
116.423008
 20
0.031223
 30
0.0
  0
SPLINE
  5
114
100
AcDbEntity
  8
Layer_1
 62
7
100
AcDbSpline
 70
8
 71
3
 72
8
 73
4
 74
0
 40
0
 40
0
 40
0
 40
0
 40
1
 40
1
 40
1
 40
1
 10
116.423008
 20
0.031223
 30
0.0
 10
123.489958
 20
0.321903
 30
0.0
 10
129.738798
 20
2.687793
 30
0.0
 10
134.877698
 20
7.019423
 30
0.0
  0
SPLINE
  5
115
100
AcDbEntity
  8
Layer_1
 62
7
100
AcDbSpline
 70
8
 71
3
 72
8
 73
4
 74
0
 40
0
 40
0
 40
0
 40
0
 40
1
 40
1
 40
1
 40
1
 10
134.877698
 20
7.019423
 30
0.0
 10
138.863188
 20
10.378813
 30
0.0
 10
142.069868
 20
15.179253
 30
0.0
 10
144.091598
 20
20.811863
 30
0.0
  0
SPLINE
  5
116
100
AcDbEntity
  8
Layer_1
 62
7
100
AcDbSpline
 70
8
 71
3
 72
8
 73
4
 74
0
 40
0
 40
0
 40
0
 40
0
 40
1
 40
1
 40
1
 40
1
 10
144.091598
 20
20.811863
 30
0.0
 10
144.649508
 20
22.366243
 30
0.0
 10
145.409368
 20
25.370513
 30
0.0
 10
145.910098
 20
27.999543
 30
0.0
  0
SPLINE
  5
117
100
AcDbEntity
  8
Layer_1
 62
7
100
AcDbSpline
 70
8
 71
3
 72
8
 73
4
 74
0
 40
0
 40
0
 40
0
 40
0
 40
1
 40
1
 40
1
 40
1
 10
147.874828
 20
31.514053
 30
0.0
 10
148.941118
 20
32.553093
 30
0.0
 10
149.498148
 20
33.228803
 30
0.0
 10
149.564648
 20
33.564573
 30
0.0
  0
SPLINE
  5
118
100
AcDbEntity
  8
Layer_1
 62
7
100
AcDbSpline
 70
8
 71
3
 72
8
 73
4
 74
0
 40
0
 40
0
 40
0
 40
0
 40
1
 40
1
 40
1
 40
1
 10
149.564648
 20
33.564573
 30
0.0
 10
149.619248
 20
33.840013
 30
0.0
 10
149.739318
 20
34.393193
 30
0.0
 10
149.831818
 20
34.793953
 30
0.0
  0
SPLINE
  5
119
100
AcDbEntity
  8
Layer_1
 62
7
100
AcDbSpline
 70
8
 71
3
 72
8
 73
4
 74
0
 40
0
 40
0
 40
0
 40
0
 40
1
 40
1
 40
1
 40
1
 10
149.831818
 20
34.793953
 30
0.0
 10
149.924318
 20
35.194733
 30
0.0
 10
149.999768
 20
37.388323
 30
0.0
 10
149.999768
 20
39.668593
 30
0.0
  0
SPLINE
  5
11a
100
AcDbEntity
  8
Layer_1
 62
7
100
AcDbSpline
 70
8
 71
3
 72
8
 73
4
 74
0
 40
0
 40
0
 40
0
 40
0
 40
1
 40
1
 40
1
 40
1
 10
149.999768
 20
39.668593
 30
0.0
 10
149.999768
 20
44.517173
 30
0.0
 10
150.059268
 20
44.332863
 30
0.0
 10
148.221068
 20
45.170584
 30
0.0
  0
SPLINE
  5
11b
100
AcDbEntity
  8
Layer_1
 62
7
100
AcDbSpline
 70
8
 71
3
 72
8
 73
4
 74
0
 40
0
 40
0
 40
0
 40
0
 40
1
 40
1
 40
1
 40
1
 10
148.221068
 20
45.170584
 30
0.0
 10
146.891988
 20
45.776264
 30
0.0
 10
145.898728
 20
46.515474
 30
0.0
 10
145.898728
 20
46.899164
 30
0.0
  0
SPLINE
  5
11c
100
AcDbEntity
  8
Layer_1
 62
7
100
AcDbSpline
 70
8
 71
3
 72
8
 73
4
 74
0
 40
0
 40
0
 40
0
 40
0
 40
1
 40
1
 40
1
 40
1
 10
145.898728
 20
46.899164
 30
0.0
 10
145.898728
 20
47.498514
 30
0.0
 10
144.627478
 20
50.989984
 30
0.0
 10
143.860608
 20
52.496234
 30
0.0
  0
SPLINE
  5
11d
100
AcDbEntity
  8
Layer_1
 62
7
100
AcDbSpline
 70
8
 71
3
 72
8
 73
4
 74
0
 40
0
 40
0
 40
0
 40
0
 40
1
 40
1
 40
1
 40
1
 10
143.860608
 20
52.496234
 30
0.0
 10
141.672438
 20
56.794084
 30
0.0
 10
138.531718
 20
59.806904
 30
0.0
 10
133.852438
 20
62.097204
 30
0.0
  0
SPLINE
  5
11e
100
AcDbEntity
  8
Layer_1
 62
7
100
AcDbSpline
 70
8
 71
3
 72
8
 73
4
 74
0
 40
0
 40
0
 40
0
 40
0
 40
1
 40
1
 40
1
 40
1
 10
133.852438
 20
62.097204
 30
0.0
 10
128.865048
 20
64.538304
 30
0.0
 10
123.475528
 20
65.724864
 30
0.0
 10
114.888218
 20
66.272144
 30
0.0
  0
SPLINE
  5
11f
100
AcDbEntity
  8
Layer_1
 62
7
100
AcDbSpline
 70
8
 71
3
 72
8
 73
4
 74
0
 40
0
 40
0
 40
0
 40
0
 40
1
 40
1
 40
1
 40
1
 10
114.888218
 20
66.272144
 30
0.0
 10
113.034138
 20
66.390304
 30
0.0
 10
94.052838
 20
66.449394
 30
0.0
 10
75.071518
 20
66.449394
 30
0.0
  0
LWPOLYLINE
  5
120
100
AcDbEntity
  8
Layer_1
 62
7
100
AcDbPolyline
 90
3
 70
0
 10
145.910098
 20
27.999543
 30
0.0
 10
146.284748
 20
29.964283
 30
0.0
 10
147.874828
 20
31.514053
 30
0.0
  0
LWPOLYLINE
  5
121
100
AcDbEntity
  8
Layer_1
 62
7
100
AcDbPolyline
 90
1
 70
1
 10
75.071518
 20
66.449394
 30
0.0
  0
SPLINE
  5
122
100
AcDbEntity
  8
Layer_1
 62
7
100
AcDbSpline
 70
8
 71
3
 72
8
 73
4
 74
0
 40
0
 40
0
 40
0
 40
0
 40
1
 40
1
 40
1
 40
1
 10
132.991508
 20
58.916514
 30
0.0
 10
134.988698
 20
57.885204
 30
0.0
 10
136.577718
 20
56.758084
 30
0.0
 10
137.896628
 20
55.416474
 30
0.0
  0
LWPOLYLINE
  5
123
100
AcDbEntity
  8
Layer_1
 62
7
100
AcDbPolyline
 90
2
 70
0
 10
17.143272
 20
58.916514
 30
0.0
 10
132.991508
 20
58.916514
 30
0.0
  0
SPLINE
  5
124
100
AcDbEntity
  8
Layer_1
 62
7
100
AcDbSpline
 70
8
 71
3
 72
8
 73
4
 74
0
 40
0
 40
0
 40
0
 40
0
 40
1
 40
1
 40
1
 40
1
 10
12.186469
 20
55.416474
 30
0.0
 10
13.517211
 20
56.758224
 30
0.0
 10
15.137691
 20
57.884234
 30
0.0
 10
17.143272
 20
58.916514
 30
0.0
  0
LWPOLYLINE
  5
125
100
AcDbEntity
  8
Layer_1
 62
7
100
AcDbPolyline
 90
2
 70
0
 10
137.896628
 20
55.416474
 30
0.0
 10
12.186469
 20
55.416474
 30
0.0
  0
LWPOLYLINE
  5
126
100
AcDbEntity
  8
Layer_1
 62
7
100
AcDbPolyline
 90
1
 70
1
 10
17.143272
 20
58.916514
 30
0.0
  0
SPLINE
  5
127
100
AcDbEntity
  8
Layer_1
 62
7
100
AcDbSpline
 70
8
 71
3
 72
8
 73
4
 74
0
 40
0
 40
0
 40
0
 40
0
 40
1
 40
1
 40
1
 40
1
 10
140.507328
 20
51.916944
 30
0.0
 10
140.670748
 20
51.629464
 30
0.0
 10
140.831168
 20
51.336544
 30
0.0
 10
140.986368
 20
51.031724
 30
0.0
  0
SPLINE
  5
128
100
AcDbEntity
  8
Layer_1
 62
7
100
AcDbSpline
 70
8
 71
3
 72
8
 73
4
 74
0
 40
0
 40
0
 40
0
 40
0
 40
1
 40
1
 40
1
 40
1
 10
140.986368
 20
51.031724
 30
0.0
 10
141.226438
 20
50.560184
 30
0.0
 10
141.699078
 20
49.429404
 30
0.0
 10
142.073638
 20
48.416894
 30
0.0
  0
LWPOLYLINE
  5
129
100
AcDbEntity
  8
Layer_1
 62
7
100
AcDbPolyline
 90
2
 70
0
 10
9.595412
 20
51.916944
 30
0.0
 10
140.507328
 20
51.916944
 30
0.0
  0
SPLINE
  5
12a
100
AcDbEntity
  8
Layer_1
 62
7
100
AcDbSpline
 70
8
 71
3
 72
8
 73
4
 74
0
 40
0
 40
0
 40
0
 40
0
 40
1
 40
1
 40
1
 40
1
 10
8.068374
 20
48.416894
 30
0.0
 10
8.518732
 20
49.711884
 30
0.0
 10
9.020356
 20
50.871304
 30
0.0
 10
9.595412
 20
51.916944
 30
0.0
  0
LWPOLYLINE
  5
12b
100
AcDbEntity
  8
Layer_1
 62
7
100
AcDbPolyline
 90
2
 70
0
 10
142.073638
 20
48.416894
 30
0.0
 10
8.068374
 20
48.416894
 30
0.0
  0
LWPOLYLINE
  5
12c
100
AcDbEntity
  8
Layer_1
 62
7
100
AcDbPolyline
 90
1
 70
1
 10
9.595412
 20
51.916944
 30
0.0
  0
SPLINE
  5
12d
100
AcDbEntity
  8
Layer_1
 62
7
100
AcDbSpline
 70
8
 71
3
 72
8
 73
4
 74
0
 40
0
 40
0
 40
0
 40
0
 40
1
 40
1
 40
1
 40
1
 10
142.851368
 20
44.916853
 30
0.0
 10
143.075208
 20
43.504323
 30
0.0
 10
143.243858
 20
42.403373
 30
0.0
 10
143.384148
 20
41.416813
 30
0.0
  0
LWPOLYLINE
  5
12e
100
AcDbEntity
  8
Layer_1
 62
7
100
AcDbPolyline
 90
2
 70
0
 10
7.309247
 20
44.916853
 30
0.0
 10
142.851368
 20
44.916853
 30
0.0
  0
SPLINE
  5
12f
100
AcDbEntity
  8
Layer_1
 62
7
100
AcDbSpline
 70
8
 71
3
 72
8
 73
4
 74
0
 40
0
 40
0
 40
0
 40
0
 40
1
 40
1
 40
1
 40
1
 10
6.732538
 20
41.416813
 30
0.0
 10
6.872549
 20
42.503743
 30
0.0
 10
7.063219
 20
43.659683
 30
0.0
 10
7.309247
 20
44.916853
 30
0.0
  0
LWPOLYLINE
  5
130
100
AcDbEntity
  8
Layer_1
 62
7
100
AcDbPolyline
 90
2
 70
0
 10
143.384148
 20
41.416813
 30
0.0
 10
6.732538
 20
41.416813
 30
0.0
  0
LWPOLYLINE
  5
131
100
AcDbEntity
  8
Layer_1
 62
7
100
AcDbPolyline
 90
1
 70
1
 10
7.309247
 20
44.916853
 30
0.0
  0
SPLINE
  5
132
100
AcDbEntity
  8
Layer_1
 62
7
100
AcDbSpline
 70
8
 71
3
 72
8
 73
4
 74
0
 40
0
 40
0
 40
0
 40
0
 40
1
 40
1
 40
1
 40
1
 10
70.310058
 20
37.916763
 30
0.0
 10
69.913948
 20
37.561533
 30
0.0
 10
69.571718
 20
37.169943
 30
0.0
 10
69.310628
 20
36.785563
 30
0.0
  0
SPLINE
  5
133
100
AcDbEntity
  8
Layer_1
 62
7
100
AcDbSpline
 70
8
 71
3
 72
8
 73
4
 74
0
 40
0
 40
0
 40
0
 40
0
 40
1
 40
1
 40
1
 40
1
 10
69.310628
 20
36.785563
 30
0.0
 10
68.846658
 20
36.102483
 30
0.0
 10
68.474608
 20
35.366293
 30
0.0
 10
68.041458
 20
34.416723
 30
0.0
  0
LWPOLYLINE
  5
134
100
AcDbEntity
  8
Layer_1
 62
7
100
AcDbPolyline
 90
2
 70
0
 10
6.440050
 20
37.916763
 30
0.0
 10
70.310058
 20
37.916763
 30
0.0
  0
SPLINE
  5
135
100
AcDbEntity
  8
Layer_1
 62
7
100
AcDbSpline
 70
8
 71
3
 72
8
 73
4
 74
0
 40
0
 40
0
 40
0
 40
0
 40
1
 40
1
 40
1
 40
1
 10
6.488625
 20
34.416723
 30
0.0
 10
6.417625
 20
35.599693
 30
0.0
 10
6.399575
 20
36.745873
 30
0.0
 10
6.440055
 20
37.916763
 30
0.0
  0
LWPOLYLINE
  5
136
100
AcDbEntity
  8
Layer_1
 62
7
100
AcDbPolyline
 90
2
 70
0
 10
68.041458
 20
34.416723
 30
0.0
 10
6.488625
 20
34.416723
 30
0.0
  0
LWPOLYLINE
  5
137
100
AcDbEntity
  8
Layer_1
 62
7
100
AcDbPolyline
 90
1
 70
1
 10
6.440055
 20
37.916763
 30
0.0
  0
SPLINE
  5
138
100
AcDbEntity
  8
Layer_1
 62
7
100
AcDbSpline
 70
8
 71
3
 72
8
 73
4
 74
0
 40
0
 40
0
 40
0
 40
0
 40
1
 40
1
 40
1
 40
1
 10
143.751058
 20
37.916763
 30
0.0
 10
143.798558
 20
36.801003
 30
0.0
 10
143.749058
 20
35.739593
 30
0.0
 10
143.618248
 20
34.416723
 30
0.0
  0
LWPOLYLINE
  5
139
100
AcDbEntity
  8
Layer_1
 62
7
100
AcDbPolyline
 90
2
 70
0
 10
79.934268
 20
37.916763
 30
0.0
 10
143.751058
 20
37.916763
 30
0.0
  0
SPLINE
  5
13a
100
AcDbEntity
  8
Layer_1
 62
7
100
AcDbSpline
 70
8
 71
3
 72
8
 73
4
 74
0
 40
0
 40
0
 40
0
 40
0
 40
1
 40
1
 40
1
 40
1
 10
82.096928
 20
34.416723
 30
0.0
 10
81.564228
 20
35.620413
 30
0.0
 10
81.187818
 20
36.389623
 30
0.0
 10
80.550778
 20
37.224813
 30
0.0
  0
SPLINE
  5
13b
100
AcDbEntity
  8
Layer_1
 62
7
100
AcDbSpline
 70
8
 71
3
 72
8
 73
4
 74
0
 40
0
 40
0
 40
0
 40
0
 40
1
 40
1
 40
1
 40
1
 10
80.550778
 20
37.224813
 30
0.0
 10
80.353968
 20
37.482843
 30
0.0
 10
80.148128
 20
37.712603
 30
0.0
 10
79.934268
 20
37.916763
 30
0.0
  0
LWPOLYLINE
  5
13c
100
AcDbEntity
  8
Layer_1
 62
7
100
AcDbPolyline
 90
2
 70
0
 10
143.618248
 20
34.416723
 30
0.0
 10
82.096928
 20
34.416723
 30
0.0
  0
LWPOLYLINE
  5
13d
100
AcDbEntity
  8
Layer_1
 62
7
100
AcDbPolyline
 90
1
 70
1
 10
79.934268
 20
37.916763
 30
0.0
  0
SPLINE
  5
13e
100
AcDbEntity
  8
Layer_1
 62
7
100
AcDbSpline
 70
8
 71
3
 72
8
 73
4
 74
0
 40
0
 40
0
 40
0
 40
0
 40
1
 40
1
 40
1
 40
1
 10
66.507708
 20
30.916673
 30
0.0
 10
66.072468
 20
29.894713
 30
0.0
 10
65.580788
 20
28.713373
 30
0.0
 10
65.047328
 20
27.416633
 30
0.0
  0
LWPOLYLINE
  5
13f
100
AcDbEntity
  8
Layer_1
 62
7
100
AcDbPolyline
 90
2
 70
0
 10
6.816771
 20
30.916673
 30
0.0
 10
66.507708
 20
30.916673
 30
0.0
  0
SPLINE
  5
140
100
AcDbEntity
  8
Layer_1
 62
7
100
AcDbSpline
 70
8
 71
3
 72
8
 73
4
 74
0
 40
0
 40
0
 40
0
 40
0
 40
1
 40
1
 40
1
 40
1
 10
7.604319
 20
27.416633
 30
0.0
 10
7.453148
 20
28.140693
 30
0.0
 10
7.308384
 20
28.880773
 30
0.0
 10
7.175922
 20
29.654733
 30
0.0
  0
SPLINE
  5
141
100
AcDbEntity
  8
Layer_1
 62
7
100
AcDbSpline
 70
8
 71
3
 72
8
 73
4
 74
0
 40
0
 40
0
 40
0
 40
0
 40
1
 40
1
 40
1
 40
1
 10
7.175922
 20
29.654733
 30
0.0
 10
7.124282
 20
29.956433
 30
0.0
 10
7.002373
 20
30.324113
 30
0.0
 10
6.844159
 20
30.693433
 30
0.0
  0
SPLINE
  5
142
100
AcDbEntity
  8
Layer_1
 62
7
100
AcDbSpline
 70
8
 71
3
 72
8
 73
4
 74
0
 40
0
 40
0
 40
0
 40
0
 40
1
 40
1
 40
1
 40
1
 10
6.844159
 20
30.693433
 30
0.0
 10
6.835059
 20
30.767833
 30
0.0
 10
6.825639
 20
30.842913
 30
0.0
 10
6.816769
 20
30.916673
 30
0.0
  0
LWPOLYLINE
  5
143
100
AcDbEntity
  8
Layer_1
 62
7
100
AcDbPolyline
 90
2
 70
0
 10
65.047328
 20
27.416633
 30
0.0
 10
7.604319
 20
27.416633
 30
0.0
  0
SPLINE
  5
144
100
AcDbEntity
  8
Layer_1
 62
7
100
AcDbSpline
 70
8
 71
3
 72
8
 73
4
 74
0
 40
0
 40
0
 40
0
 40
0
 40
1
 40
1
 40
1
 40
1
 10
83.613118
 20
30.916673
 30
0.0
 10
83.613118
 20
30.916673
 30
0.0
 10
143.203798
 20
30.916673
 30
0.0
 10
143.203798
 20
30.916673
 30
0.0
  0
SPLINE
  5
145
100
AcDbEntity
  8
Layer_1
 62
7
100
AcDbSpline
 70
8
 71
3
 72
8
 73
4
 74
0
 40
0
 40
0
 40
0
 40
0
 40
1
 40
1
 40
1
 40
1
 10
143.203798
 20
30.916673
 30
0.0
 10
143.167904
 20
30.802476
 30
0.0
 10
143.138392
 20
30.686369
 30
0.0
 10
143.115398
 20
30.568893
 30
0.0
  0
LWPOLYLINE
  5
146
100
AcDbEntity
  8
Layer_1
 62
7
100
AcDbPolyline
 90
1
 70
1
 10
6.816769
 20
30.916673
 30
0.0
  0
SPLINE
  5
147
100
AcDbEntity
  8
Layer_1
 62
7
100
AcDbSpline
 70
8
 71
3
 72
8
 73
4
 74
0
 40
0
 40
0
 40
0
 40
0
 40
1
 40
1
 40
1
 40
1
 10
142.740218
 20
28.602083
 30
0.0
 10
142.666918
 20
28.217493
 30
0.0
 10
142.584678
 20
27.818593
 30
0.0
 10
142.498898
 20
27.416633
 30
0.0
  0
LWPOLYLINE
  5
148
100
AcDbEntity
  8
Layer_1
 62
7
100
AcDbPolyline
 90
2
 70
0
 10
143.115398
 20
30.568893
 30
0.0
 10
142.740218
 20
28.602083
 30
0.0
  0
SPLINE
  5
149
100
AcDbEntity
  8
Layer_1
 62
7
100
AcDbSpline
 70
8
 71
3
 72
8
 73
4
 74
0
 40
0
 40
0
 40
0
 40
0
 40
1
 40
1
 40
1
 40
1
 10
85.066258
 20
27.416633
 30
0.0
 10
84.546808
 20
28.677703
 30
0.0
 10
84.023858
 20
29.946283
 30
0.0
 10
83.613118
 20
30.916673
 30
0.0
  0
LWPOLYLINE
  5
14a
100
AcDbEntity
  8
Layer_1
 62
7
100
AcDbPolyline
 90
2
 70
0
 10
142.498898
 20
27.416633
 30
0.0
 10
85.066258
 20
27.416633
 30
0.0
  0
LWPOLYLINE
  5
14b
100
AcDbEntity
  8
Layer_1
 62
7
100
AcDbPolyline
 90
1
 70
1
 10
83.613118
 20
30.916673
 30
0.0
  0
SPLINE
  5
14c
100
AcDbEntity
  8
Layer_1
 62
7
100
AcDbSpline
 70
8
 71
3
 72
8
 73
4
 74
0
 40
0
 40
0
 40
0
 40
0
 40
1
 40
1
 40
1
 40
1
 10
63.620538
 20
23.916583
 30
0.0
 10
63.619538
 20
23.913583
 30
0.0
 10
63.618538
 20
23.911583
 30
0.0
 10
63.617538
 20
23.908583
 30
0.0
  0
SPLINE
  5
14d
100
AcDbEntity
  8
Layer_1
 62
7
100
AcDbSpline
 70
8
 71
3
 72
8
 73
4
 74
0
 40
0
 40
0
 40
0
 40
0
 40
1
 40
1
 40
1
 40
1
 10
63.617538
 20
23.908583
 30
0.0
 10
63.078508
 20
22.573063
 30
0.0
 10
62.583478
 20
21.441673
 30
0.0
 10
62.094117
 20
20.416293
 30
0.0
  0
LWPOLYLINE
  5
14e
100
AcDbEntity
  8
Layer_1
 62
7
100
AcDbPolyline
 90
2
 70
0
 10
8.461115
 20
23.916583
 30
0.0
 10
63.620538
 20
23.916583
 30
0.0
  0
SPLINE
  5
14f
100
AcDbEntity
  8
Layer_1
 62
7
100
AcDbSpline
 70
8
 71
3
 72
8
 73
4
 74
0
 40
0
 40
0
 40
0
 40
0
 40
1
 40
1
 40
1
 40
1
 10
9.650706
 20
20.416293
 30
0.0
 10
9.210340
 20
21.516903
 30
0.0
 10
8.816402
 20
22.680353
 30
0.0
 10
8.461115
 20
23.916333
 30
0.0
  0
LWPOLYLINE
  5
150
100
AcDbEntity
  8
Layer_1
 62
7
100
AcDbPolyline
 90
2
 70
0
 10
62.094117
 20
20.416293
 30
0.0
 10
9.650706
 20
20.416293
 30
0.0
  0
LWPOLYLINE
  5
151
100
AcDbEntity
  8
Layer_1
 62
7
100
AcDbPolyline
 90
2
 70
0
 10
8.461115
 20
23.916333
 30
0.0
 10
8.461115
 20
23.916583
 30
0.0
  0
SPLINE
  5
152
100
AcDbEntity
  8
Layer_1
 62
7
100
AcDbSpline
 70
8
 71
3
 72
8
 73
4
 74
0
 40
0
 40
0
 40
0
 40
0
 40
1
 40
1
 40
1
 40
1
 10
141.658158
 20
23.916583
 30
0.0
 10
141.429738
 20
23.066833
 30
0.0
 10
141.216078
 20
22.350633
 30
0.0
 10
141.054578
 20
21.900683
 30
0.0
  0
SPLINE
  5
153
100
AcDbEntity
  8
Layer_1
 62
7
100
AcDbSpline
 70
8
 71
3
 72
8
 73
4
 74
0
 40
0
 40
0
 40
0
 40
0
 40
1
 40
1
 40
1
 40
1
 10
141.054578
 20
21.900683
 30
0.0
 10
140.873768
 20
21.396933
 30
0.0
 10
140.679708
 20
20.903793
 30
0.0
 10
140.478898
 20
20.416543
 30
0.0
  0
LWPOLYLINE
  5
154
100
AcDbEntity
  8
Layer_1
 62
7
100
AcDbPolyline
 90
2
 70
0
 10
86.504418
 20
23.916583
 30
0.0
 10
141.658158
 20
23.916583
 30
0.0
  0
SPLINE
  5
155
100
AcDbEntity
  8
Layer_1
 62
7
100
AcDbSpline
 70
8
 71
3
 72
8
 73
4
 74
0
 40
0
 40
0
 40
0
 40
0
 40
1
 40
1
 40
1
 40
1
 10
88.040238
 20
20.416543
 30
0.0
 10
87.563228
 20
21.406963
 30
0.0
 10
87.069188
 20
22.534963
 30
0.0
 10
86.504418
 20
23.916583
 30
0.0
  0
LWPOLYLINE
  5
156
100
AcDbEntity
  8
Layer_1
 62
7
100
AcDbPolyline
 90
2
 70
0
 10
140.478898
 20
20.416543
 30
0.0
 10
88.040238
 20
20.416543
 30
0.0
  0
LWPOLYLINE
  5
157
100
AcDbEntity
  8
Layer_1
 62
7
100
AcDbPolyline
 90
1
 70
1
 10
86.504418
 20
23.916583
 30
0.0
  0
SPLINE
  5
158
100
AcDbEntity
  8
Layer_1
 62
7
100
AcDbSpline
 70
8
 71
3
 72
8
 73
4
 74
0
 40
0
 40
0
 40
0
 40
0
 40
1
 40
1
 40
1
 40
1
 10
60.167517
 20
16.916493
 30
0.0
 10
59.584857
 20
16.012213
 30
0.0
 10
58.953527
 20
15.144873
 30
0.0
 10
58.222937
 20
14.226743
 30
0.0
  0
SPLINE
  5
159
100
AcDbEntity
  8
Layer_1
 62
7
100
AcDbSpline
 70
8
 71
3
 72
8
 73
4
 74
0
 40
0
 40
0
 40
0
 40
0
 40
1
 40
1
 40
1
 40
1
 10
58.222937
 20
14.226743
 30
0.0
 10
58.003517
 20
13.950993
 30
0.0
 10
57.779317
 20
13.682223
 30
0.0
 10
57.553207
 20
13.416453
 30
0.0
  0
LWPOLYLINE
  5
15a
100
AcDbEntity
  8
Layer_1
 62
7
100
AcDbPolyline
 90
2
 70
0
 10
11.318821
 20
16.916493
 30
0.0
 10
60.167517
 20
16.916493
 30
0.0
  0
SPLINE
  5
15b
100
AcDbEntity
  8
Layer_1
 62
7
100
AcDbSpline
 70
8
 71
3
 72
8
 73
4
 74
0
 40
0
 40
0
 40
0
 40
0
 40
1
 40
1
 40
1
 40
1
 10
13.624107
 20
13.416453
 30
0.0
 10
12.768688
 20
14.530023
 30
0.0
 10
12.004746
 20
15.688873
 30
0.0
 10
11.318821
 20
16.916493
 30
0.0
  0
LWPOLYLINE
  5
15c
100
AcDbEntity
  8
Layer_1
 62
7
100
AcDbPolyline
 90
2
 70
0
 10
57.553207
 20
13.416453
 30
0.0
 10
13.624107
 20
13.416453
 30
0.0
  0
LWPOLYLINE
  5
15d
100
AcDbEntity
  8
Layer_1
 62
7
100
AcDbPolyline
 90
1
 70
1
 10
11.318821
 20
16.916493
 30
0.0
  0
SPLINE
  5
15e
100
AcDbEntity
  8
Layer_1
 62
7
100
AcDbSpline
 70
8
 71
3
 72
8
 73
4
 74
0
 40
0
 40
0
 40
0
 40
0
 40
1
 40
1
 40
1
 40
1
 10
138.790638
 20
16.916493
 30
0.0
 10
138.092858
 20
15.668313
 30
0.0
 10
137.328398
 20
14.496493
 30
0.0
 10
136.504988
 20
13.416453
 30
0.0
  0
LWPOLYLINE
  5
15f
100
AcDbEntity
  8
Layer_1
 62
7
100
AcDbPolyline
 90
2
 70
0
 10
89.995148
 20
16.916493
 30
0.0
 10
138.790638
 20
16.916493
 30
0.0
  0
SPLINE
  5
160
100
AcDbEntity
  8
Layer_1
 62
7
100
AcDbSpline
 70
8
 71
3
 72
8
 73
4
 74
0
 40
0
 40
0
 40
0
 40
0
 40
1
 40
1
 40
1
 40
1
 10
92.575878
 20
13.416453
 30
0.0
 10
91.751778
 20
14.390363
 30
0.0
 10
90.971458
 20
15.429893
 30
0.0
 10
90.240108
 20
16.535643
 30
0.0
  0
SPLINE
  5
161
100
AcDbEntity
  8
Layer_1
 62
7
100
AcDbSpline
 70
8
 71
3
 72
8
 73
4
 74
0
 40
0
 40
0
 40
0
 40
0
 40
1
 40
1
 40
1
 40
1
 10
90.240108
 20
16.535643
 30
0.0
 10
90.155408
 20
16.663763
 30
0.0
 10
90.076878
 20
16.789663
 30
0.0
 10
89.995148
 20
16.916493
 30
0.0
  0
LWPOLYLINE
  5
162
100
AcDbEntity
  8
Layer_1
 62
7
100
AcDbPolyline
 90
2
 70
0
 10
136.504988
 20
13.416453
 30
0.0
 10
92.575878
 20
13.416453
 30
0.0
  0
LWPOLYLINE
  5
163
100
AcDbEntity
  8
Layer_1
 62
7
100
AcDbPolyline
 90
1
 70
1
 10
89.995148
 20
16.916493
 30
0.0
  0
SPLINE
  5
164
100
AcDbEntity
  8
Layer_1
 62
7
100
AcDbSpline
 70
8
 71
3
 72
8
 73
4
 74
0
 40
0
 40
0
 40
0
 40
0
 40
1
 40
1
 40
1
 40
1
 10
54.050067
 20
9.916923
 30
0.0
 10
52.422587
 20
8.544903
 30
0.0
 10
50.668017
 20
7.377473
 30
0.0
 10
48.795607
 20
6.416883
 30
0.0
  0
LWPOLYLINE
  5
165
100
AcDbEntity
  8
Layer_1
 62
7
100
AcDbPolyline
 90
2
 70
0
 10
16.802724
 20
9.916923
 30
0.0
 10
54.050067
 20
9.916923
 30
0.0
  0
SPLINE
  5
166
100
AcDbEntity
  8
Layer_1
 62
7
100
AcDbSpline
 70
8
 71
3
 72
8
 73
4
 74
0
 40
0
 40
0
 40
0
 40
0
 40
1
 40
1
 40
1
 40
1
 10
21.876833
 20
6.416883
 30
0.0
 10
19.996848
 20
7.400553
 30
0.0
 10
18.287706
 20
8.576493
 30
0.0
 10
16.802724
 20
9.916923
 30
0.0
  0
LWPOLYLINE
  5
167
100
AcDbEntity
  8
Layer_1
 62
7
100
AcDbPolyline
 90
2
 70
0
 10
48.795607
 20
6.416883
 30
0.0
 10
21.876833
 20
6.416883
 30
0.0
  0
LWPOLYLINE
  5
168
100
AcDbEntity
  8
Layer_1
 62
7
100
AcDbPolyline
 90
1
 70
1
 10
16.802724
 20
9.916923
 30
0.0
  0
SPLINE
  5
169
100
AcDbEntity
  8
Layer_1
 62
7
100
AcDbSpline
 70
8
 71
3
 72
8
 73
4
 74
0
 40
0
 40
0
 40
0
 40
0
 40
1
 40
1
 40
1
 40
1
 10
133.287608
 20
9.916923
 30
0.0
 10
133.124908
 20
9.771423
 30
0.0
 10
132.962458
 20
9.626273
 30
0.0
 10
132.797198
 20
9.486973
 30
0.0
  0
SPLINE
  5
16a
100
AcDbEntity
  8
Layer_1
 62
7
100
AcDbSpline
 70
8
 71
3
 72
8
 73
4
 74
0
 40
0
 40
0
 40
0
 40
0
 40
1
 40
1
 40
1
 40
1
 10
132.797198
 20
9.486973
 30
0.0
 10
131.381538
 20
8.293703
 30
0.0
 10
129.880728
 20
7.270663
 30
0.0
 10
128.295148
 20
6.416883
 30
0.0
  0
LWPOLYLINE
  5
16b
100
AcDbEntity
  8
Layer_1
 62
7
100
AcDbPolyline
 90
2
 70
0
 10
96.060938
 20
9.916923
 30
0.0
 10
133.287608
 20
9.916923
 30
0.0
  0
SPLINE
  5
16c
100
AcDbEntity
  8
Layer_1
 62
7
100
AcDbSpline
 70
8
 71
3
 72
8
 73
4
 74
0
 40
0
 40
0
 40
0
 40
0
 40
1
 40
1
 40
1
 40
1
 10
101.273028
 20
6.416883
 30
0.0
 10
99.421758
 20
7.375463
 30
0.0
 10
97.679328
 20
8.543643
 30
0.0
 10
96.060938
 20
9.916923
 30
0.0
  0
LWPOLYLINE
  5
16d
100
AcDbEntity
  8
Layer_1
 62
7
100
AcDbPolyline
 90
2
 70
0
 10
128.295148
 20
6.416883
 30
0.0
 10
101.273028
 20
6.416883
 30
0.0
  0
LWPOLYLINE
  5
16e
100
AcDbEntity
  8
Layer_1
 62
7
100
AcDbPolyline
 90
1
 70
1
 10
96.060938
 20
9.916923
 30
0.0
  0
ENDSEC
  0
SECTION
  2
OBJECTS
  0
DICTIONARY
  5
C
330
0
100
AcDbDictionary
  3
ACAD_GROUP
350
D
  3
ACAD_MLINESTYLE
350
17
  0
DICTIONARY
  5
D
330
C
100
AcDbDictionary
  0
DICTIONARY
  5
1A
330
C
100
AcDbDictionary
  0
DICTIONARY
  5
17
330
C
100
AcDbDictionary
  3
STANDARD
350
18
  0
DICTIONARY
  5
19
330
C
100
AcDbDictionary
  0
ENDSEC
  0
EOF
